<svg height="347" viewBox="0 0 708 347" width="708" xmlns="http://www.w3.org/2000/svg"><g fill="none" fill-rule="evenodd"><g fill="#e0e6ff" transform="translate(.525609 23.430659)"><path d="m74.4395288 124.217307v-30.4837442-63.0021677h161.9717782v123.9941349h263.636168v-108.5221076h167.519328v135.3257606h34.906286v140.947317h-669.2067022v-129.742554h7.5877911v-68.516639zm335.6255412-115.79543693h46.741378v26.52889073h-46.741378z"/><path d="m285.842486 0h170.542869 246.3397v42.9515374l-.483915 137.3418176-34.852988-.907522.270533-133.4866411h-167.820696v108.2210301h-263.604533v-122.9593027h-161.704112v92.4026397h-33.8538174c.1554179 31.823893.1554179 54.662773 0 68.51664-9.3374249-.089656-22.7029321-.089656-40.09652149 0l-.57900511-192.080199z" opacity=".346959"/></g><g stroke="#4a90e2" stroke-width="8.692012" transform="translate(.826451 31.694303)"><path d="m547.669409 172.891489h119.417901v-67.118091"/><path d="m.27816309 183.816554h80.19304301"/><path d="m32.7868935 202.724767v-18.908213"/><path d="m235.931813 250.843591v-106.6531"/><path d="m342.841923 144.190491v39.626063"/><path d="m430.966784 144.190491v122.735778"/><path d="m430.966784 223.419047h-88.124861v43.507222h29.248984"/><path d="m402.709795 266.926269h96.754649v-9.074371"/><path d="m536.055668 37.2860303h-36.487687v181.3060107"/><path d="m577.464383 225.085262h-24.71961v88.473846h149.195525v-63.692074"/><path d="m499.567981 126.807336h29.147298"/><path d="m460.516497 145.808137h39.051484"/><path d="m312.682845 145.808137h39.051484"/><path d="m409.667832 30.0723911v-30.0723911h46.569633v30.0723911"/><path d="m253.707123 145.808137h-17.77531v-31.201163"/><path d="m32.3983836 292.203352v21.355756h208.3275794"/><path d="m271.341505 313.559108h101.499639"/><path d="m402.783346 313.559108h96.75465v-10.382479"/><path d="m706.495989 173.714084h-9.004787"/><path d="m672.06528 37.2860303h-9.004787"/><path d="m511.679194 172.829706h-9.004787"/><path d="m556.569865 178.059687h-9.004787"/><path d="m435.238255 145.808137h-45.880105"/><path d="m635.720863 37.2860303h-75.008217"/><path d="m235.931813 47.1031478v-25.447585h-11.356747"/><path d="m202.011749 21.6555628h-66.452284"/><path d="m78.4624293 21.814003h-9.0047876"/><path d="m45.3392159 115.299915h-9.0047876"/><path d="m45.3392159 135.784007h-9.0047876"/><path d="m45.7487419 175.880529h-9.5882986" transform="matrix(0 -1 1 0 -134.925936 216.835122)"/><path d="m73.9600355 81.5363892v38.3676928"/></g><g stroke="#4a90e2" stroke-width=".869201" transform="translate(33.791996 27.576317)"><path d="m41.173142 119.650555h-33.58535093v68.51664h-7.58779107v129.742554h669.206702v-140.947318h-34.906286v-135.3257601h-167.519328v108.5221071h-263.636168v-123.9941344h-161.971778v63.0021677"/><path d="m334.603351 271.698003h39.418742"/><path d="m466.781088 223.336099v43.824719"/><path d="m318.947436 150.579872v39.477557c25.082547.371454 37.623821-12.787731 37.623821-39.477557-24.807202.074822-37.348475.074822-37.623821 0z"/><path d="m518.203957 185.664328v39.477557c25.082548.371455 37.623822-12.787731 37.623822-39.477557-24.807202.074822-37.348476.074822-37.623822 0z"/><path d="m467.647474 274.574006v39.477557c25.082547.371455 37.623821-12.787731 37.623821-39.477557-24.807202.074823-37.348475.074823-37.623821 0z" transform="matrix(0 -1 1 0 192.142775 780.775993)"/><path d="m477.235772 138.594498v39.477557c25.082548.371455 37.623822-12.787731 37.623822-39.477557-24.807202.074823-37.348476.074823-37.623822 0z" transform="matrix(0 -1 1 0 337.710582 654.384784)"/><path d="m429.294279 222.710027v39.477557c25.082548.371455 37.623821-12.787731 37.623821-39.477557-24.807201.074823-37.348475.074823-37.623821 0z" transform="matrix(-1 0 0 -1 896.21238 484.90526)"/><path d="m8.45945458 139.684078v39.477557c25.08254742.371455 37.62382112-12.787731 37.62382112-39.477557-24.8072015.074822-37.34847514.074822-37.62382112 0z" stroke-linejoin="round" transform="matrix(0 -1 1 0 -132.155315 186.698045)"/><path d="m463.507072 140.832686h-260.540803"/><path d="m463.507072 130.808555h-260.540803"/><path d="m463.507072 120.784425h-260.540803"/><path d="m463.507072 110.760295h-260.540803"/><path d="m463.507072 100.736164h-260.540803"/><path d="m463.507072 90.7120338h-260.540803"/><path d="m463.507072 80.6879034h-260.540803"/><path d="m463.507072 70.663773h-260.540803"/><path d="m463.507072 60.6396426h-260.540803"/><path d="m463.507072 50.6155123h-260.540803"/><path d="m463.507072 40.5913819h-260.540803"/><path d="m378.196462 30.5672515h-175.230193"/><path d="m378.196462 20.5431211h-126.138285"/><path d="m378.196462 10.5189907h-126.138285"/><path d="m378.196462.49486035h-126.138285"/></g><g fill="#161d3a" fill-rule="nonzero" transform="translate(13.502788 .597072)"><path d="m79.8284532 266.870887c0-2.552 1.452-3.949 4.84-3.949 3.069 0 4.609 1.166 4.807 3.388h-2.013c-.187-1.243-1.144-1.727-2.794-1.727-2.013 0-2.86.715-2.86 2.288 0 1.584.858 2.31 2.86 2.31 1.639 0 2.607-.495 2.794-1.749h2.013c-.198 2.233-1.738 3.41-4.807 3.41-3.388 0-4.84-1.408-4.84-3.971zm15.092 3.971c-3.388 0-4.84-1.408-4.84-3.971 0-2.552 1.452-3.949 4.84-3.949 3.377 0 4.84 1.408 4.84 3.949 0 2.552-1.463 3.971-4.84 3.971zm0-1.661c2.057 0 2.86-.737 2.86-2.31 0-1.562-.792-2.288-2.86-2.288s-2.86.715-2.86 2.288c0 1.584.803 2.31 2.86 2.31zm17.3469998-6.149v7.7h-1.98v-5.28l-3.201 5.28h-1.43l-3.201-5.28v5.28h-1.98v-7.7h2.673l3.223 5.434 3.223-5.434zm9.02 1.573h-6.16v1.562h6.16v1.43h-6.16v1.562h6.16v1.573h-8.14v-7.7h8.14zm6.303-1.573c1.991 0 3.74 1.232 3.74 3.85s-1.749 3.85-3.74 3.85h-5.588v-7.7zm-.748 6.039c1.496 0 2.508-.319 2.508-2.189s-1.012-2.189-2.508-2.189h-2.86v4.378zm9.933 1.771c-3.388 0-4.84-1.408-4.84-3.971 0-2.552 1.452-3.949 4.84-3.949 3.377 0 4.84 1.408 4.84 3.949 0 2.552-1.463 3.971-4.84 3.971zm0-1.661c2.057 0 2.86-.737 2.86-2.31 0-1.562-.792-2.288-2.86-2.288s-2.86.715-2.86 2.288c0 1.584.803 2.31 2.86 2.31zm14.553-3.322c0 1.254-.638 2.178-1.672 2.585l1.419 2.288h-2.332l-1.243-2.057h-3.19v2.057h-1.98v-7.7h6.05c1.749 0 2.948 1.111 2.948 2.827zm-7.018-1.166v2.321h3.52c.594 0 1.518 0 1.518-1.155 0-1.166-.924-1.166-1.518-1.166z"/><path d="m118.725103 129.722631h5.94v1.661h-7.92v-7.7h1.98zm8.69-6.039v7.7h-1.98v-7.7zm8.921 0h2.222l-3.96 7.7h-2.706l-3.96-7.7h2.222l3.091 6.237zm4.675 0v7.7h-1.98v-7.7zm8.822 0h1.98v7.7h-2.695l-5.247-5.775v5.775h-1.98v-7.7h2.684l5.258 5.786zm7.403 4.862v-1.287h4.884v4.125h-1.463l-.088-1.21c-.726.792-1.881 1.32-3.52 1.32-2.838 0-4.576-1.408-4.576-3.96s1.738-3.96 4.906-3.96c3.08 0 4.62 1.199 4.741 3.113h-2.013c-.11-.583-.638-1.452-2.728-1.452-2.574 0-2.926 1.419-2.926 2.343 0 .935.363 2.387 2.926 2.387 1.914 0 2.684-.836 2.728-1.419z"/><path d="m251.783279 234.025594c0-2.552 1.452-3.949 4.84-3.949 3.069 0 4.609 1.166 4.807 3.388h-2.013c-.187-1.243-1.144-1.727-2.794-1.727-2.013 0-2.86.715-2.86 2.288 0 1.584.858 2.31 2.86 2.31 1.639 0 2.607-.495 2.794-1.749h2.013c-.198 2.233-1.738 3.41-4.807 3.41-3.388 0-4.84-1.408-4.84-3.971zm15.092 3.971c-3.388 0-4.84-1.408-4.84-3.971 0-2.552 1.452-3.949 4.84-3.949 3.377 0 4.84 1.408 4.84 3.949 0 2.552-1.463 3.971-4.84 3.971zm0-1.661c2.057 0 2.86-.737 2.86-2.31 0-1.562-.792-2.288-2.86-2.288s-2.86.715-2.86 2.288c0 1.584.803 2.31 2.86 2.31zm5.445-2.31c0-2.552 1.452-3.949 4.84-3.949 3.069 0 4.609 1.166 4.807 3.388h-2.013c-.187-1.243-1.144-1.727-2.794-1.727-2.013 0-2.86.715-2.86 2.288 0 1.584.858 2.31 2.86 2.31 1.639 0 2.607-.495 2.794-1.749h2.013c-.198 2.233-1.738 3.41-4.807 3.41-3.388 0-4.84-1.408-4.84-3.971zm12.342-3.839v7.7h-1.98v-7.7zm8.822 0h1.98v7.7h-2.695l-5.247-5.775v5.775h-1.98v-7.7h2.684l5.258 5.786zm10.89 7.7-.825-1.639h-4.609l-.825 1.639h-2.178l3.971-7.7h2.673l3.982 7.7zm-4.697-3.113h3.135l-1.562-3.124z"/><path d="m334.488448 236.250849h5.94v1.661h-7.92v-7.7h1.98zm14.916 1.661-.825-1.639h-4.609l-.825 1.639h-2.178l3.971-7.7h2.673l3.982 7.7zm-4.697-3.113h3.135l-1.562-3.124zm12.419-4.587h2.222l-3.96 7.7h-2.706l-3.96-7.7h2.222l3.091 6.237zm7.854 7.7-.825-1.639h-4.609l-.825 1.639h-2.178l3.971-7.7h2.673l3.982 7.7zm-4.697-3.113h3.135l-1.562-3.124zm12.947-4.587c1.991 0 3.74 1.232 3.74 3.85s-1.749 3.85-3.74 3.85h-5.588v-7.7zm-.748 6.039c1.496 0 2.508-.319 2.508-2.189s-1.012-2.189-2.508-2.189h-2.86v4.378zm13.343-4.466h-6.16v1.562h6.16v1.43h-6.16v1.562h6.16v1.573h-8.14v-7.7h8.14zm9.713 1.254c0 1.254-.638 2.178-1.672 2.585l1.419 2.288h-2.332l-1.243-2.057h-3.19v2.057h-1.98v-7.7h6.05c1.749 0 2.948 1.111 2.948 2.827zm-7.018-1.166v2.321h3.52c.594 0 1.518 0 1.518-1.155 0-1.166-.924-1.166-1.518-1.166zm12.397 6.149c-3.388 0-4.84-1.408-4.84-3.971 0-2.552 1.452-3.949 4.84-3.949 3.377 0 4.84 1.408 4.84 3.949 0 2.552-1.463 3.971-4.84 3.971zm0-1.661c2.057 0 2.86-.737 2.86-2.31 0-1.562-.792-2.288-2.86-2.288s-2.86.715-2.86 2.288c0 1.584.803 2.31 2.86 2.31z"/><path d="m362.628836 275.571697c.66.407 1.089 1.045 1.089 1.936 0 1.298-.759 2.244-2.508 2.244h-7.04v-7.7h6.776c1.749 0 2.288.891 2.288 2.024 0 .539-.22 1.067-.605 1.496zm-6.479-2.09v1.595h4.092c.528 0 1.012 0 1.012-.803 0-.792-.484-.792-1.023-.792zm4.576 4.741c.528 0 1.012 0 1.012-.814s-.484-.814-1.012-.814h-4.576v1.628zm11.308 1.529-.825-1.639h-4.609l-.825 1.639h-2.178l3.971-7.7h2.673l3.982 7.7zm-4.697-3.113h3.135l-1.562-3.124zm11.341-6.457c-.462 0-.605.352-.605.979h-1.606c0-1.221.484-2.31 1.727-2.31 1.254 0 1.551 1.089 2.431 1.089.473 0 .616-.352.616-.979h1.606c0 1.221-.495 2.31-1.727 2.31-1.265 0-1.562-1.089-2.442-1.089zm3.96 1.87h1.98v7.7h-2.695l-5.247-5.775v5.775h-1.98v-7.7h2.684l5.258 5.786zm7.48 7.81c-3.388 0-4.84-1.408-4.84-3.971 0-2.552 1.452-3.949 4.84-3.949 3.377 0 4.84 1.408 4.84 3.949 0 2.552-1.463 3.971-4.84 3.971zm0-1.661c2.057 0 2.86-.737 2.86-2.31 0-1.562-.792-2.288-2.86-2.288s-2.86.715-2.86 2.288c0 1.584.803 2.31 2.86 2.31z"/><path d="m495.086338 259.846555c1.431 0 2.412.909 2.412 2.313s-.981 2.304-2.412 2.304h-3.33v1.683h-1.62v-6.3zm-.45 3.258c.486 0 1.242 0 1.242-.945 0-.954-.756-.954-1.242-.954h-2.88v1.899zm8.883 3.042-.675-1.341h-3.771l-.675 1.341h-1.782l3.249-6.3h2.187l3.258 6.3zm-3.843-2.547h2.565l-1.278-2.556zm5.445.378h1.62c0 .666.54.972 2.592.972 1.701 0 2.214-.189 2.214-.684 0-.522-.36-.612-2.403-.711-2.745-.126-3.834-.558-3.834-1.971 0-1.386 1.413-1.827 3.771-1.827 2.376 0 3.816.594 3.816 2.151h-1.62c0-.693-.693-.864-2.376-.864-1.593 0-1.971.153-1.971.621 0 .486.378.576 2.214.684 2.484.135 4.023.27 4.023 1.863 0 1.683-1.593 2.025-3.924 2.025-2.583 0-4.122-.441-4.122-2.259zm10.251-4.131v6.3h-1.62v-6.3zm2.34 4.941h4.86v1.359h-6.48v-6.3h1.62zm7.11 0h4.86v1.359h-6.48v-6.3h1.62zm9.054 1.449c-2.772 0-3.96-1.152-3.96-3.249 0-2.088 1.188-3.231 3.96-3.231 2.763 0 3.96 1.152 3.96 3.231 0 2.088-1.197 3.249-3.96 3.249zm0-1.359c1.683 0 2.34-.603 2.34-1.89 0-1.278-.648-1.872-2.34-1.872s-2.34.585-2.34 1.872c0 1.296.657 1.89 2.34 1.89z" transform="matrix(0 1 -1 0 776.982893 -250.989783)"/><path d="m576.271918 281.05696c0-2.088 1.188-3.231 3.96-3.231 2.511 0 3.771.954 3.933 2.772h-1.647c-.153-1.017-.936-1.413-2.286-1.413-1.647 0-2.34.585-2.34 1.872 0 1.296.702 1.89 2.34 1.89 1.341 0 2.133-.405 2.286-1.431h1.647c-.162 1.827-1.422 2.79-3.933 2.79-2.772 0-3.96-1.152-3.96-3.249zm12.348 3.249c-2.772 0-3.96-1.152-3.96-3.249 0-2.088 1.188-3.231 3.96-3.231 2.763 0 3.96 1.152 3.96 3.231 0 2.088-1.197 3.249-3.96 3.249zm0-1.359c1.683 0 2.34-.603 2.34-1.89 0-1.278-.648-1.872-2.34-1.872s-2.34.585-2.34 1.872c0 1.296.657 1.89 2.34 1.89zm11.043-5.031h1.62v6.3h-2.205l-4.293-4.725v4.725h-1.62v-6.3h2.196l4.302 4.734zm12.591 3.15c.603.288.972.72.972 1.377 0 1.395-1.269 1.863-3.483 1.863-2.187 0-3.663-.468-3.663-2.475h1.62c0 1.008.747 1.116 2.133 1.116 1.287 0 1.773-.108 1.773-.711 0-.63-.486-.684-2.673-.684v-.972c2.142 0 2.673-.054 2.673-.684 0-.549-.378-.711-1.773-.711-1.539 0-2.133.162-2.133 1.116h-1.62c0-2.007 1.476-2.475 3.663-2.475 2.214 0 3.483.468 3.483 1.863 0 .657-.369 1.089-.972 1.377zm5.679-.009c0-2.088 1.188-3.231 3.96-3.231 2.511 0 3.771.954 3.933 2.772h-1.647c-.153-1.017-.936-1.413-2.286-1.413-1.647 0-2.34.585-2.34 1.872 0 1.296.702 1.89 2.34 1.89 1.341 0 2.133-.405 2.286-1.431h1.647c-.162 1.827-1.422 2.79-3.933 2.79-2.772 0-3.96-1.152-3.96-3.249zm14.319 3.159-.675-1.341h-3.771l-.675 1.341h-1.782l3.249-6.3h2.187l3.258 6.3zm-3.843-2.547h2.565l-1.278-2.556zm15.669-3.753v6.3h-1.62v-4.32l-2.619 4.32h-1.17l-2.619-4.32v4.32h-1.62v-6.3h2.187l2.637 4.446 2.637-4.446zm7.29 6.3-.675-1.341h-3.771l-.675 1.341h-1.782l3.249-6.3h2.187l3.258 6.3zm-3.843-2.547h2.565l-1.278-2.556zm5.445.378h1.62c0 .666.54.972 2.592.972 1.701 0 2.214-.189 2.214-.684 0-.522-.36-.612-2.403-.711-2.745-.126-3.834-.558-3.834-1.971 0-1.386 1.413-1.827 3.771-1.827 2.376 0 3.816.594 3.816 2.151h-1.62c0-.693-.693-.864-2.376-.864-1.593 0-1.971.153-1.971.621 0 .486.378.576 2.214.684 2.484.135 4.023.27 4.023 1.863 0 1.683-1.593 2.025-3.924 2.025-2.583 0-4.122-.441-4.122-2.259zm-75.0015 8.869c1.629 0 3.06 1.008 3.06 3.15s-1.431 3.15-3.06 3.15h-4.572v-6.3zm-.612 4.941c1.224 0 2.052-.261 2.052-1.791s-.828-1.791-2.052-1.791h-2.34v3.582zm10.917-3.654h-5.04v1.278h5.04v1.17h-5.04v1.278h5.04v1.287h-6.66v-6.3h6.66zm12.717 1.854c0 2.187-1.197 3.249-3.96 3.249-2.772 0-3.96-1.053-3.96-3.249v-3.141h1.62v3.141c0 .882.243 1.89 2.34 1.89s2.34-1.017 2.34-1.89v-3.141h1.62zm7.173-3.141h1.62v6.3h-2.205l-4.293-4.725v4.725h-1.62v-6.3h2.196l4.302 4.734zm8.91 6.3-.675-1.341h-3.771l-.675 1.341h-1.782l3.249-6.3h2.187l3.258 6.3zm-3.843-2.547h2.565l-1.278-2.556zm15.381-3.753c1.431 0 2.412.909 2.412 2.313s-.981 2.304-2.412 2.304h-3.33v1.683h-1.62v-6.3zm-.45 3.258c.486 0 1.242 0 1.242-.945 0-.954-.756-.954-1.242-.954h-2.88v1.899zm5.067 1.683h4.86v1.359h-6.48v-6.3h1.62zm12.204 1.359-.675-1.341h-3.771l-.675 1.341h-1.782l3.249-6.3h2.187l3.258 6.3zm-3.843-2.547h2.565l-1.278-2.556zm13.221-3.753v1.359l-4.788 3.582h4.788v1.359h-7.11v-1.359l4.779-3.582h-4.779v-1.359zm7.38 6.3-.675-1.341h-3.771l-.675 1.341h-1.782l3.249-6.3h2.187l3.258 6.3zm-3.843-2.547h2.565l-1.278-2.556z"/><path d="m119.178453 278.719216v1.278h-2.907v2.421h-1.539v-2.421h-2.754v-1.278h2.754v-2.421h1.539v2.421zm-68.9039998 13.54c0-2.088 1.188-3.231 3.96-3.231 2.511 0 3.771.954 3.933 2.772h-1.647c-.153-1.017-.936-1.413-2.286-1.413-1.647 0-2.34.585-2.34 1.872 0 1.296.702 1.89 2.34 1.89 1.341 0 2.133-.405 2.286-1.431h1.647c-.162 1.827-1.422 2.79-3.933 2.79-2.772 0-3.96-1.152-3.96-3.249zm14.319 3.159-.675-1.341h-3.771l-.675 1.341h-1.782l3.249-6.3h2.187l3.258 6.3zm-3.843-2.547h2.565l-1.278-2.556zm15.669-3.753v6.3h-1.62v-4.32l-2.619 4.32h-1.17l-2.619-4.32v4.32h-1.62v-6.3h2.187l2.637 4.446 2.637-4.446zm7.29 6.3-.675-1.341h-3.771l-.675 1.341h-1.782l3.249-6.3h2.187l3.258 6.3zm-3.843-2.547h2.565l-1.278-2.556zm15.003-3.753c1.629 0 3.06 1.008 3.06 3.15s-1.431 3.15-3.06 3.15h-4.572v-6.3zm-.612 4.941c1.224 0 2.052-.261 2.052-1.791s-.828-1.791-2.052-1.791h-2.34v3.582zm10.9169998-3.654h-5.04v1.278h5.04v1.17h-5.04v1.278h5.04v1.287h-6.6599998v-6.3h6.6599998zm12.717 1.854c0 2.187-1.197 3.249-3.96 3.249-2.772 0-3.96-1.053-3.96-3.249v-3.141h1.62v3.141c0 .882.243 1.89 2.34 1.89s2.34-1.017 2.34-1.89v-3.141h1.62zm7.173-3.141h1.62v6.3h-2.205l-4.293-4.725v4.725h-1.62v-6.3h2.196l4.302 4.734zm8.91 6.3-.675-1.341h-3.771l-.675 1.341h-1.782l3.249-6.3h2.187l3.258 6.3zm-3.843-2.547h2.565l-1.278-2.556zm15.381-3.753c1.431 0 2.412.909 2.412 2.313s-.981 2.304-2.412 2.304h-3.33v1.683h-1.62v-6.3zm-.45 3.258c.486 0 1.242 0 1.242-.945 0-.954-.756-.954-1.242-.954h-2.88v1.899zm5.067 1.683h4.86v1.359h-6.48v-6.3h1.62zm12.204 1.359-.675-1.341h-3.771l-.675 1.341h-1.782l3.249-6.3h2.187l3.258 6.3zm-3.843-2.547h2.565l-1.278-2.556zm13.221-3.753v1.359l-4.788 3.582h4.788v1.359h-7.11v-1.359l4.779-3.582h-4.779v-1.359zm7.38 6.3-.675-1.341h-3.771l-.675 1.341h-1.782l3.249-6.3h2.187l3.258 6.3zm-3.843-2.547h2.565l-1.278-2.556z"/><path d="m280.417325 246.843062v1.278h-2.907v2.421h-1.539v-2.421h-2.754v-1.278h2.754v-2.421h1.539v2.421zm-43.6815 10.399c1.629 0 3.06 1.008 3.06 3.15s-1.431 3.15-3.06 3.15h-4.572v-6.3zm-.612 4.941c1.224 0 2.052-.261 2.052-1.791s-.828-1.791-2.052-1.791h-2.34v3.582zm10.917-3.654h-5.04v1.278h5.04v1.17h-5.04v1.278h5.04v1.287h-6.66v-6.3h6.66zm.495 2.844h1.62c0 .666.54.972 2.592.972 1.701 0 2.214-.189 2.214-.684 0-.522-.36-.612-2.403-.711-2.745-.126-3.834-.558-3.834-1.971 0-1.386 1.413-1.827 3.771-1.827 2.376 0 3.816.594 3.816 2.151h-1.62c0-.693-.693-.864-2.376-.864-1.593 0-1.971.153-1.971.621 0 .486.378.576 2.214.684 2.484.135 4.023.27 4.023 1.863 0 1.683-1.593 2.025-3.924 2.025-2.583 0-4.122-.441-4.122-2.259zm14.85 2.169-.675-1.341h-3.771l-.675 1.341h-1.782l3.249-6.3h2.187l3.258 6.3zm-3.843-2.547h2.565l-1.278-2.556zm7.236.477-3.564-4.23h1.953l2.421 2.871 2.421-2.871h1.953l-3.564 4.23v2.07h-1.62zm13.527-1.089c0 2.187-1.197 3.249-3.96 3.249-2.772 0-3.96-1.053-3.96-3.249v-3.141h1.62v3.141c0 .882.243 1.89 2.34 1.89s2.34-1.017 2.34-1.89v-3.141h1.62zm7.173-3.141h1.62v6.3h-2.205l-4.293-4.725v4.725h-1.62v-6.3h2.196l4.302 4.734zm8.91 6.3-.675-1.341h-3.771l-.675 1.341h-1.782l3.249-6.3h2.187l3.258 6.3zm-3.843-2.547h2.565l-1.278-2.556zm10.593-3.753c1.629 0 3.06 1.008 3.06 3.15s-1.431 3.15-3.06 3.15h-4.572v-6.3zm-.612 4.941c1.224 0 2.052-.261 2.052-1.791s-.828-1.791-2.052-1.791h-2.34v3.582zm8.127 1.449c-2.772 0-3.96-1.152-3.96-3.249 0-2.088 1.188-3.231 3.96-3.231 2.763 0 3.96 1.152 3.96 3.231 0 2.088-1.197 3.249-3.96 3.249zm0-1.359c1.683 0 2.34-.603 2.34-1.89 0-1.278-.648-1.872-2.34-1.872s-2.34.585-2.34 1.872c0 1.296.657 1.89 2.34 1.89zm11.907-2.718c0 1.026-.522 1.782-1.368 2.115l1.161 1.872h-1.908l-1.017-1.683h-2.61v1.683h-1.62v-6.3h4.95c1.431 0 2.412.909 2.412 2.313zm-5.742-.954v1.899h2.88c.486 0 1.242 0 1.242-.945 0-.954-.756-.954-1.242-.954z"/><path d="m355.283295 318.148309c1.431 0 2.412.909 2.412 2.313s-.981 2.304-2.412 2.304h-3.33v1.683h-1.62v-6.3zm-.45 3.258c.486 0 1.242 0 1.242-.945 0-.954-.756-.954-1.242-.954h-2.88v1.899zm8.883 3.042-.675-1.341h-3.771l-.675 1.341h-1.782l3.249-6.3h2.187l3.258 6.3zm-3.843-2.547h2.565l-1.278-2.556zm5.445.378h1.62c0 .666.54.972 2.592.972 1.701 0 2.214-.189 2.214-.684 0-.522-.36-.612-2.403-.711-2.745-.126-3.834-.558-3.834-1.971 0-1.386 1.413-1.827 3.771-1.827 2.376 0 3.816.594 3.816 2.151h-1.62c0-.693-.693-.864-2.376-.864-1.593 0-1.971.153-1.971.621 0 .486.378.576 2.214.684 2.484.135 4.023.27 4.023 1.863 0 1.683-1.593 2.025-3.924 2.025-2.583 0-4.122-.441-4.122-2.259zm10.251-4.131v6.3h-1.62v-6.3zm2.34 4.941h4.86v1.359h-6.48v-6.3h1.62zm7.11 0h4.86v1.359h-6.48v-6.3h1.62zm9.054 1.449c-2.772 0-3.96-1.152-3.96-3.249 0-2.088 1.188-3.231 3.96-3.231 2.763 0 3.96 1.152 3.96 3.231 0 2.088-1.197 3.249-3.96 3.249zm0-1.359c1.683 0 2.34-.603 2.34-1.89 0-1.278-.648-1.872-2.34-1.872s-2.34.585-2.34 1.872c0 1.296.657 1.89 2.34 1.89z"/><path d="m-10.874631 172.883098-.675-1.341h-3.771l-.675 1.341h-1.782l3.249-6.3h2.187l3.25799999 6.3zm-3.843-2.547h2.565l-1.278-2.556zm5.21099999-.612c0-2.088 1.188-3.231 3.96-3.231 2.511 0 3.771.954 3.933 2.772h-1.647c-.153-1.017-.936-1.413-2.286-1.413-1.647 0-2.34.585-2.34 1.872 0 1.296.702 1.89 2.34 1.89 1.341 0 2.133-.405 2.286-1.431h1.647c-.162 1.827-1.422 2.79-3.933 2.79-2.772 0-3.96-1.152-3.96-3.249zm8.388 0c0-2.088 1.188-3.231 3.96-3.231 2.511 0 3.771.954 3.933 2.772h-1.647c-.153-1.017-.936-1.413-2.286-1.413-1.647 0-2.34.585-2.34 1.872 0 1.296.702 1.89 2.34 1.89 1.341 0 2.133-.405 2.286-1.431h1.647c-.162 1.827-1.422 2.79-3.933 2.79-2.772 0-3.96-1.152-3.96-3.249zm15.13800001-1.854h-5.04000001v1.278h5.04000001v1.17h-5.04000001v1.278h5.04000001v1.287h-6.66000001v-6.3h6.66000001zm.495 2.844h1.62c0 .666.54.972 2.592.972 1.701 0 2.214-.189 2.214-.684 0-.522-.36-.612-2.403-.711-2.745-.126-3.834-.558-3.834-1.971 0-1.386 1.413-1.827 3.771-1.827 2.376 0 3.816.594 3.816 2.151h-1.62c0-.693-.693-.864-2.376-.864-1.593 0-1.971.153-1.971.621 0 .486.378.576 2.214.684 2.484.135 4.023.27 4.023 1.863 0 1.683-1.593 2.025-3.924 2.025-2.583 0-4.122-.441-4.122-2.259zm12.411 2.259c-2.772 0-3.96-1.152-3.96-3.249 0-2.088 1.188-3.231 3.96-3.231 2.763 0 3.96 1.152 3.96 3.231 0 2.088-1.197 3.249-3.96 3.249zm0-1.359c1.683 0 2.34-.603 2.34-1.89 0-1.278-.648-1.872-2.34-1.872s-2.34.585-2.34 1.872c0 1.296.657 1.89 2.34 1.89z" transform="matrix(0 1 -1 0 176.286967 163.179229)"/><path d="m441.668118 233.731849c.66.407 1.089 1.045 1.089 1.936 0 1.298-.759 2.244-2.508 2.244h-7.04v-7.7h6.776c1.749 0 2.288.891 2.288 2.024 0 .539-.22 1.067-.605 1.496zm-6.479-2.09v1.595h4.092c.528 0 1.012 0 1.012-.803 0-.792-.484-.792-1.023-.792zm4.576 4.741c.528 0 1.012 0 1.012-.814s-.484-.814-1.012-.814h-4.576v1.628zm11.308 1.529-.825-1.639h-4.609l-.825 1.639h-2.178l3.971-7.7h2.673l3.982 7.7zm-4.697-3.113h3.135l-1.562-3.124zm11.341-6.457c-.462 0-.605.352-.605.979h-1.606c0-1.221.484-2.31 1.727-2.31 1.254 0 1.551 1.089 2.431 1.089.473 0 .616-.352.616-.979h1.606c0 1.221-.495 2.31-1.727 2.31-1.265 0-1.562-1.089-2.442-1.089zm3.96 1.87h1.98v7.7h-2.695l-5.247-5.775v5.775h-1.98v-7.7h2.684l5.258 5.786zm7.48 7.81c-3.388 0-4.84-1.408-4.84-3.971 0-2.552 1.452-3.949 4.84-3.949 3.377 0 4.84 1.408 4.84 3.949 0 2.552-1.463 3.971-4.84 3.971zm0-1.661c2.057 0 2.86-.737 2.86-2.31 0-1.562-.792-2.288-2.86-2.288s-2.86.715-2.86 2.288c0 1.584.803 2.31 2.86 2.31z"/><path d="m580.585736 261.846522c1.991 0 3.74 1.232 3.74 3.85s-1.749 3.85-3.74 3.85h-5.588v-7.7zm-.748 6.039c1.496 0 2.508-.319 2.508-2.189s-1.012-2.189-2.508-2.189h-2.86v4.378zm9.933 1.771c-3.388 0-4.84-1.408-4.84-3.971 0-2.552 1.452-3.949 4.84-3.949 3.377 0 4.84 1.408 4.84 3.949 0 2.552-1.463 3.971-4.84 3.971zm0-1.661c2.057 0 2.86-.737 2.86-2.31 0-1.562-.792-2.288-2.86-2.288s-2.86.715-2.86 2.288c0 1.584.803 2.31 2.86 2.31zm14.553-3.322c0 1.254-.638 2.178-1.672 2.585l1.419 2.288h-2.332l-1.243-2.057h-3.19v2.057h-1.98v-7.7h6.05c1.749 0 2.948 1.111 2.948 2.827zm-7.018-1.166v2.321h3.52c.594 0 1.518 0 1.518-1.155 0-1.166-.924-1.166-1.518-1.166zm19.459-1.661v7.7h-1.98v-5.28l-3.201 5.28h-1.43l-3.201-5.28v5.28h-1.98v-7.7h2.673l3.223 5.434 3.223-5.434zm2.86 0v7.7h-1.98v-7.7zm10.109 0v1.661h-3.74v6.039h-1.98v-6.039h-3.74v-1.661zm5.016 7.81c-3.388 0-4.84-1.408-4.84-3.971 0-2.552 1.452-3.949 4.84-3.949 3.377 0 4.84 1.408 4.84 3.949 0 2.552-1.463 3.971-4.84 3.971zm0-1.661c2.057 0 2.86-.737 2.86-2.31 0-1.562-.792-2.288-2.86-2.288s-2.86.715-2.86 2.288c0 1.584.803 2.31 2.86 2.31zm14.553-3.322c0 1.254-.638 2.178-1.672 2.585l1.419 2.288h-2.332l-1.243-2.057h-3.19v2.057h-1.98v-7.7h6.05c1.749 0 2.948 1.111 2.948 2.827zm-7.018-1.166v2.321h3.52c.594 0 1.518 0 1.518-1.155 0-1.166-.924-1.166-1.518-1.166zm9.647-1.661v7.7h-1.98v-7.7zm5.5 7.81c-3.388 0-4.84-1.408-4.84-3.971 0-2.552 1.452-3.949 4.84-3.949 3.377 0 4.84 1.408 4.84 3.949 0 2.552-1.463 3.971-4.84 3.971zm0-1.661c2.057 0 2.86-.737 2.86-2.31 0-1.562-.792-2.288-2.86-2.288s-2.86.715-2.86 2.288c0 1.584.803 2.31 2.86 2.31z"/><path d="m535.94685 123.285201c1.991 0 3.74 1.232 3.74 3.85s-1.749 3.85-3.74 3.85h-5.588v-7.7zm-.748 6.039c1.496 0 2.508-.319 2.508-2.189s-1.012-2.189-2.508-2.189h-2.86v4.378zm9.933 1.771c-3.388 0-4.84-1.408-4.84-3.971 0-2.552 1.452-3.949 4.84-3.949 3.377 0 4.84 1.408 4.84 3.949 0 2.552-1.463 3.971-4.84 3.971zm0-1.661c2.057 0 2.86-.737 2.86-2.31 0-1.562-.792-2.288-2.86-2.288s-2.86.715-2.86 2.288c0 1.584.803 2.31 2.86 2.31zm14.553-3.322c0 1.254-.638 2.178-1.672 2.585l1.419 2.288h-2.332l-1.243-2.057h-3.19v2.057h-1.98v-7.7h6.05c1.749 0 2.948 1.111 2.948 2.827zm-7.018-1.166v2.321h3.52c.594 0 1.518 0 1.518-1.155 0-1.166-.924-1.166-1.518-1.166zm19.459-1.661v7.7h-1.98v-5.28l-3.201 5.28h-1.43l-3.201-5.28v5.28h-1.98v-7.7h2.673l3.223 5.434 3.223-5.434zm2.86 0v7.7h-1.98v-7.7zm10.109 0v1.661h-3.74v6.039h-1.98v-6.039h-3.74v-1.661zm5.016 7.81c-3.388 0-4.84-1.408-4.84-3.971 0-2.552 1.452-3.949 4.84-3.949 3.377 0 4.84 1.408 4.84 3.949 0 2.552-1.463 3.971-4.84 3.971zm0-1.661c2.057 0 2.86-.737 2.86-2.31 0-1.562-.792-2.288-2.86-2.288s-2.86.715-2.86 2.288c0 1.584.803 2.31 2.86 2.31zm14.553-3.322c0 1.254-.638 2.178-1.672 2.585l1.419 2.288h-2.332l-1.243-2.057h-3.19v2.057h-1.98v-7.7h6.05c1.749 0 2.948 1.111 2.948 2.827zm-7.018-1.166v2.321h3.52c.594 0 1.518 0 1.518-1.155 0-1.166-.924-1.166-1.518-1.166zm9.647-1.661v7.7h-1.98v-7.7zm5.5 7.81c-3.388 0-4.84-1.408-4.84-3.971 0-2.552 1.452-3.949 4.84-3.949 3.377 0 4.84 1.408 4.84 3.949 0 2.552-1.463 3.971-4.84 3.971zm0-1.661c2.057 0 2.86-.737 2.86-2.31 0-1.562-.792-2.288-2.86-2.288s-2.86.715-2.86 2.288c0 1.584.803 2.31 2.86 2.31zm-76.4665 9.851v7.7h-1.98v-5.28l-3.201 5.28h-1.43l-3.201-5.28v5.28h-1.98v-7.7h2.673l3.223 5.434 3.223-5.434zm8.91 7.7-.825-1.639h-4.609l-.825 1.639h-2.178l3.971-7.7h2.673l3.982 7.7zm-4.697-3.113h3.135l-1.562-3.124zm14.641-4.587v1.661h-3.74v6.039h-1.98v-6.039h-3.74v-1.661zm9.647 2.827c0 1.254-.638 2.178-1.672 2.585l1.419 2.288h-2.332l-1.243-2.057h-3.19v2.057h-1.98v-7.7h6.05c1.749 0 2.948 1.111 2.948 2.827zm-7.018-1.166v2.321h3.52c.594 0 1.518 0 1.518-1.155 0-1.166-.924-1.166-1.518-1.166zm9.647-1.661v7.7h-1.98v-7.7zm12.672 0v7.7h-1.98v-5.28l-3.201 5.28h-1.43l-3.201-5.28v5.28h-1.98v-7.7h2.673l3.223 5.434 3.223-5.434zm5.5 7.81c-3.388 0-4.84-1.408-4.84-3.971 0-2.552 1.452-3.949 4.84-3.949 3.377 0 4.84 1.408 4.84 3.949 0 2.552-1.463 3.971-4.84 3.971zm0-1.661c2.057 0 2.86-.737 2.86-2.31 0-1.562-.792-2.288-2.86-2.288s-2.86.715-2.86 2.288c0 1.584.803 2.31 2.86 2.31zm13.497-6.149h1.98v7.7h-2.695l-5.247-5.775v5.775h-1.98v-7.7h2.684l5.258 5.786zm4.84 0v7.7h-1.98v-7.7zm8.91 7.7-.825-1.639h-4.609l-.825 1.639h-2.178l3.971-7.7h2.673l3.982 7.7zm-4.697-3.113h3.135l-1.562-3.124zm9.339 1.452h5.94v1.661h-7.92v-7.7h1.98z"/><path d="m392.100119 5.32266289c1.749 0 2.948 1.111 2.948 2.827s-1.199 2.81600001-2.948 2.81600001h-4.07v2.057h-1.98v-7.70000001zm-.55 3.982c.594 0 1.518 0 1.518-1.155 0-1.166-.924-1.166-1.518-1.166h-3.52v2.321zm10.857 3.71800001-.825-1.639h-4.609l-.825 1.639h-2.178l3.971-7.70000001h2.673l3.982 7.70000001zm-4.697-3.11300001h3.135l-1.562-3.124zm16.357-1.76c0 1.254-.638 2.17800001-1.672 2.58500001l1.419 2.288h-2.332l-1.243-2.057h-3.19v2.057h-1.98v-7.70000001h6.05c1.749 0 2.948 1.111 2.948 2.827zm-7.018-1.166v2.321h3.52c.594 0 1.518 0 1.518-1.155 0-1.166-.924-1.166-1.518-1.166zm16.665 1.166c0 1.254-.638 2.17800001-1.672 2.58500001l1.419 2.288h-2.332l-1.243-2.057h-3.19v2.057h-1.98v-7.70000001h6.05c1.749 0 2.948 1.111 2.948 2.827zm-7.018-1.166v2.321h3.52c.594 0 1.518 0 1.518-1.155 0-1.166-.924-1.166-1.518-1.166zm9.647-1.661v7.70000001h-1.98v-7.70000001zm2.86 6.03900001h5.94v1.661h-7.92v-7.70000001h1.98zm8.69 0h5.94v1.661h-7.92v-7.70000001h1.98zm14.916 1.661-.825-1.639h-4.609l-.825 1.639h-2.178l3.971-7.70000001h2.673l3.982 7.70000001zm-4.697-3.11300001h3.135l-1.562-3.124z"/><path d="m322.392292 5.32266289c1.991 0 3.74 1.232 3.74 3.85 0 2.61800001-1.749 3.85000001-3.74 3.85000001h-5.588v-7.70000001zm-.748 6.03900001c1.496 0 2.508-.319 2.508-2.18900001 0-1.87-1.012-2.189-2.508-2.189h-2.86v4.37800001zm13.343-4.46600001h-6.16v1.562h6.16v1.43h-6.16v1.56200001h6.16v1.573h-8.14v-7.70000001h8.14zm.539 2.266c0-2.552 1.452-3.949 4.84-3.949 3.069 0 4.609 1.166 4.807 3.388h-2.013c-.187-1.243-1.144-1.727-2.794-1.727-2.013 0-2.86.715-2.86 2.288 0 1.58400001.858 2.31000001 2.86 2.31000001 1.639 0 2.607-.495 2.794-1.74900001h2.013c-.198 2.23300001-1.738 3.41000001-4.807 3.41000001-3.388 0-4.84-1.408-4.84-3.97100001zm20.834-3.839-4.664 3.421 4.664 4.27900001h-2.739l-3.388-3.20100001-2.365 1.72700001v1.474h-1.98v-7.70000001h1.98v3.993l5.489-3.993z"/></g></g></svg>