<svg height="814" viewBox="0 0 1680 814" width="1680" xmlns="http://www.w3.org/2000/svg"><g fill="none" fill-rule="evenodd"><g fill="#e0e6ff" transform="translate(.189989 48)"><path d="m176.776721 294.987469v-72.391865-149.6156249h384.645635v294.4574859h626.075124v-257.714988h397.81979v321.367485h82.89438v334.717388h-1589.21165v-308.108657h18.0192546v-162.711224zm797.03329-274.987469h110.999999v63h-110.999999z"/><path d="m678.810011 0h404.999999 585v102l-1.14918 326.155156-82.76782-2.155156.64246-317h-398.53547v257h-626v-292h-384.009989v219.434969h-80.3950118c.3690816 75.574409.3690816 129.811484 0 162.711224-22.1742318-.212911-53.9142303-.212911-95.21999553 0l-1.37500367-456.146193z" opacity=".346959"/></g><g stroke="#4a90e2" stroke-width="20.699999" transform="translate(.904419 67.624251)"><path d="m1300.5886 410.57743h283.58998v-159.389992"/><path d="m.66057322 436.521942h190.43999078"/><path d="m77.8613141 481.42459v-44.902648"/><path d="m560.28367 595.695703v-253.276525"/><path d="m814.170535 342.419178v94.102764"/><path d="m1023.44677 342.419178v291.46918"/><path d="m1023.44677 530.568734h-209.276235v103.319624h69.459594"/><path d="m956.342929 633.888358h229.769991v-21.54954"/><path d="m1273.00864 88.5457268h-86.64985v430.5599792"/><path d="m1371.34479 534.52561h-58.70337v210.10499h354.30498v-151.253995"/><path d="m1186.35879 301.138192h69.21812"/><path d="m1093.62052 346.260715h92.73827"/><path d="m742.549677 346.260715h92.738273"/><path d="m972.866664 71.4149966v-71.4149966h110.592146v71.4149966"/><path d="m602.495933 346.260715h-42.212263v-74.095572"/><path d="m76.9386924 693.915602v50.714998h494.7299766"/><path d="m644.373523 744.6306h241.038247"/><path d="m956.517597 744.6306h229.769993v-24.655994"/><path d="m1677.76511 412.530906h-21.38429"/><path d="m1596.00012 88.5457268h-21.3843"/><path d="m1215.12013 410.430712h-21.38429"/><path d="m1321.72513 422.850711h-21.3843"/><path d="m1033.59052 346.260715h-108.954668"/><path d="m1509.6905 88.5457268h-178.12722"/><path d="m560.28367 111.859118v-60.4321485h-26.969658"/><path d="m479.731335 51.4269695h-157.808855"/><path d="m186.330182 51.8032285h-21.384294"/><path d="m107.670186 273.810718h-21.3842946"/><path d="m107.670186 322.455716h-21.3842946"/><path d="m108.642716 417.675711h-22.769999" transform="matrix(0 -1 1 0 -320.417995 514.933427)"/><path d="m175.638035 193.630128v91.114426"/></g><g stroke="#4a90e2" stroke-width="2.07" transform="translate(79.189989 57.844982)"><path d="m97.7767209 284.142487h-79.7574663v162.711224h-18.0192546v308.108657h1589.21165v-334.717388h-82.89438v-321.3674847h-397.81979v257.7149877h-626.075124v-294.457486h-384.6456351v149.615625"/><path d="m794.605825 645.220126h93.610426"/><path d="m1108.49748 530.371752v104.073604"/><path d="m757.426636 357.592483v93.750098c59.565268.882119 89.347902-30.367913 89.347902-93.750098-58.911385.177686-88.694019.177686-89.347902 0z"/><path d="m1230.61494 440.909979v93.750098c59.56527.882119 89.3479-30.367913 89.3479-93.750098-58.91138.177686-88.69401.177686-89.3479 0z"/><path d="m1110.55495 652.049969v93.750098c59.56527.882119 89.3479-30.367913 89.3479-93.750098-58.91139.177686-88.69402.177686-89.3479 0z" transform="matrix(0 -1 1 0 456.2948 1854.162998)"/><path d="m1133.32495 329.129984v93.750098c59.56526.882119 89.3479-30.367913 89.3479-93.750098-58.91139.177687-88.69402.177687-89.3479 0z" transform="matrix(0 -1 1 0 801.984782 1554.013012)"/><path d="m1019.47495 528.884975v93.750098c59.56527.882119 89.3479-30.367914 89.3479-93.750098-58.91138.177686-88.69401.177686-89.3479 0z" transform="matrix(-1 0 0 -1 2128.297806 1151.53821)"/><path d="m20.0892545 331.717484v93.750098c59.565268.882119 89.3479025-30.367913 89.3479025-93.750098-58.9113852.177687-88.6940192.177687-89.3479025 0z" stroke-linejoin="round" transform="matrix(0 -1 1 0 -313.838409 443.364821)"/><path d="m1100.72245 334.445164h-618.72435"/><path d="m1100.72245 310.640165h-618.72435"/><path d="m1100.72245 286.835166h-618.72435"/><path d="m1100.72245 263.030167h-618.72435"/><path d="m1100.72245 239.225168h-618.72435"/><path d="m1100.72245 215.420169h-618.72435"/><path d="m1100.72245 191.61517h-618.72435"/><path d="m1100.72245 167.810171h-618.72435"/><path d="m1100.72245 144.005173h-618.72435"/><path d="m1100.72245 120.200174h-618.72435"/><path d="m1100.72245 96.3951748h-618.72435"/><path d="m898.129415 72.5901759h-416.131315"/><path d="m898.129415 48.785177h-299.54935"/><path d="m898.129415 24.9801781h-299.54935"/><path d="m898.129415 1.17517927h-299.54935"/></g><g fill="#161d3a" fill-rule="nonzero" transform="translate(13.47998 .919985)"><path d="m224.725003 628.7343c0-4.802399 2.7324-7.431299 9.108-7.431299 5.775299 0 8.673299 2.1942 9.045899 6.375599h-3.7881c-.351899-2.339099-2.152799-3.249899-5.257799-3.249899-3.7881 0-5.382 1.345499-5.382 4.305599 0 2.9808 1.6146 4.347 5.382 4.347 3.0843 0 4.9059-.9315 5.257799-3.2913h3.7881c-.3726 4.2021-3.2706 6.417-9.045899 6.417-6.3756 0-9.108-2.6496-9.108-7.4727zm28.400399 7.4727c-6.3756 0-9.108-2.6496-9.108-7.4727 0-4.802399 2.7324-7.431299 9.108-7.431299 6.3549 0 9.107999 2.6496 9.107999 7.431299 0 4.8024-2.753099 7.4727-9.107999 7.4727zm0-3.1257c3.8709 0 5.382-1.3869 5.382-4.347 0-2.9394-1.4904-4.305599-5.382-4.305599s-5.382 1.345499-5.382 4.305599c0 2.9808 1.5111 4.347 5.382 4.347zm32.643898-11.571299v14.489999h-3.726v-9.936l-6.023699 9.936h-2.691l-6.0237-9.936v9.936h-3.726v-14.489999h5.0301l6.0651 10.225799 6.0651-10.225799zm16.973999 2.9601h-11.591999v2.939399h11.591999v2.691h-11.591999v2.9394h11.591999v2.9601h-15.317999v-14.489999h15.317999zm11.8611-2.9601c3.7467 0 7.038 2.3184 7.038 7.244999 0 4.9266-3.2913 7.245-7.038 7.245h-10.5156v-14.489999zm-1.4076 11.364299c2.8152 0 4.7196-.6003 4.7196-4.1193 0-3.518999-1.9044-4.119299-4.7196-4.119299h-5.382v8.238599zm18.692099 3.3327c-6.3756 0-9.107999-2.6496-9.107999-7.4727 0-4.802399 2.732399-7.431299 9.107999-7.431299 6.3549 0 9.108 2.6496 9.108 7.431299 0 4.8024-2.7531 7.4727-9.108 7.4727zm0-3.1257c3.8709 0 5.382-1.3869 5.382-4.347 0-2.9394-1.4904-4.305599-5.382-4.305599s-5.382 1.345499-5.382 4.305599c0 2.9808 1.5111 4.347 5.382 4.347zm27.386099-6.2514c0 2.3598-1.2006 4.0986-3.1464 4.8645l2.6703 4.3056h-4.3884l-2.3391-3.8709h-6.003v3.8709h-3.725999v-14.489999h11.384999c3.2913 0 5.5476 2.0907 5.5476 5.319899zm-13.2066-2.194199v4.367699h6.624c1.1178 0 2.8566 0 2.8566-2.1735 0-2.194199-1.7388-2.194199-2.8566-2.194199z"/><path d="m309.653247 301.954315h11.178v3.1257h-14.903999v-14.489999h3.725999zm16.353-11.364299v14.489999h-3.726v-14.489999zm16.787699 0h4.1814l-7.452 14.489999h-5.0922l-7.451999-14.489999h4.181399l5.8167 11.736899zm8.797499 0v14.489999h-3.725999v-14.489999zm16.6014 0h3.725999v14.489999h-5.071499l-9.8739-10.867499v10.867499h-3.726v-14.489999h5.0508l9.8946 10.888199zm13.931099 9.1494v-2.4219h9.1908v7.762499h-2.7531l-.1656-2.277c-1.3662 1.4904-3.5397 2.484-6.624 2.484-5.3406 0-8.6112-2.6496-8.6112-7.451999 0-4.8024 3.2706-7.452 9.2322-7.452 5.796 0 8.694 2.2563 8.9217 5.8581h-3.7881c-.207-1.0971-1.2006-2.7324-5.1336-2.7324-4.8438 0-5.5062 2.6703-5.5062 4.4091 0 1.7595.6831 4.491899 5.5062 4.491899 3.6018 0 5.0508-1.5732 5.1336-2.670299z"/><path d="m628.957002 550.7343c0-4.802399 2.7324-7.431299 9.108-7.431299 5.7753 0 8.6733 2.1942 9.0459 6.375599h-3.7881c-.3519-2.339099-2.1528-3.249899-5.2578-3.249899-3.7881 0-5.382 1.345499-5.382 4.305599 0 2.9808 1.6146 4.347 5.382 4.347 3.0843 0 4.9059-.9315 5.2578-3.2913h3.7881c-.3726 4.2021-3.2706 6.417-9.0459 6.417-6.3756 0-9.108-2.6496-9.108-7.4727zm28.400399 7.4727c-6.3756 0-9.107999-2.6496-9.107999-7.4727 0-4.802399 2.732399-7.431299 9.107999-7.431299 6.3549 0 9.108 2.6496 9.108 7.431299 0 4.8024-2.7531 7.4727-9.108 7.4727zm0-3.1257c3.8709 0 5.382-1.3869 5.382-4.347 0-2.9394-1.4904-4.305599-5.382-4.305599s-5.382 1.345499-5.382 4.305599c0 2.9808 1.5111 4.347 5.382 4.347zm10.2465-4.347c0-4.802399 2.732399-7.431299 9.107999-7.431299 5.7753 0 8.6733 2.1942 9.0459 6.375599h-3.7881c-.3519-2.339099-2.1528-3.249899-5.2578-3.249899-3.7881 0-5.382 1.345499-5.382 4.305599 0 2.9808 1.6146 4.347 5.382 4.347 3.0843 0 4.9059-.9315 5.2578-3.2913h3.7881c-.3726 4.2021-3.2706 6.417-9.0459 6.417-6.3756 0-9.107999-2.6496-9.107999-7.4727zm23.225399-7.224299v14.489999h-3.726v-14.489999zm16.601399 0h3.726v14.489999h-5.0715l-9.8739-10.867499v10.867499h-3.726v-14.489999h5.0508l9.8946 10.888199zm20.492999 14.489999-1.5525-3.0843h-8.6733l-1.5525 3.0843h-4.098599l7.472699-14.489999h5.0301l7.4934 14.489999zm-8.8389-5.8581h5.8995l-2.9394-5.878799z"/><path d="m841.291322 554.934275h11.178v3.1257h-14.903999v-14.49h3.725999zm28.069199 3.1257-1.5525-3.0843h-8.6733l-1.552499 3.0843h-4.0986l7.472699-14.49h5.0301l7.4934 14.49zm-8.8389-5.8581h5.8995l-2.9394-5.8788zm23.370299-8.6319h4.1814l-7.452 14.49h-5.092199l-7.452-14.49h4.1814l5.8167 11.7369zm14.7798 14.49-1.5525-3.0843h-8.6733l-1.5525 3.0843h-4.0986l7.4727-14.49h5.0301l7.493399 14.49zm-8.8389-5.8581h5.8995l-2.9394-5.8788zm24.363899-8.6319c3.7467 0 7.038 2.3184 7.038 7.245s-3.2913 7.245-7.038 7.245h-10.5156v-14.49zm-1.4076 11.3643c2.8152 0 4.7196-.6003 4.7196-4.1193s-1.9044-4.1193-4.7196-4.1193h-5.382v8.2386zm25.109099-8.4042h-11.592v2.9394h11.592v2.691h-11.592v2.9394h11.592v2.9601h-15.318v-14.49h15.318zm18.278099 2.3598c0 2.3598-1.2006 4.0986-3.1464 4.8645l2.6703 4.3056h-4.3884l-2.3391-3.8709h-6.002999v3.8709h-3.726v-14.49h11.384999c3.2913 0 5.5476 2.0907 5.5476 5.3199zm-13.206599-2.1942v4.3677h6.623999c1.1178 0 2.8566 0 2.8566-2.1735 0-2.1942-1.7388-2.1942-2.8566-2.1942zm23.328898 11.5713c-6.375599 0-9.107999-2.6496-9.107999-7.4727 0-4.8024 2.7324-7.4313 9.107999-7.4313 6.3549 0 9.108 2.6496 9.108 7.4313 0 4.8024-2.7531 7.4727-9.108 7.4727zm0-3.1257c3.8709 0 5.382-1.3869 5.382-4.347 0-2.9394-1.4904-4.3056-5.382-4.3056-3.891599 0-5.381999 1.3455-5.381999 4.3056 0 2.9808 1.5111 4.347 5.381999 4.347z"/><path d="m884.54397 649.55397c1.242.7659 2.0493 1.9665 2.0493 3.6432 0 2.4426-1.4283 4.2228-4.7196 4.2228h-13.247999v-14.489999h12.751199c3.2913 0 4.3056 1.6767 4.3056 3.8088 0 1.0143-.414 2.007899-1.1385 2.815199zm-12.192299-3.932999v3.0015h7.700399c.9936 0 1.9044 0 1.9044-1.5111 0-1.4904-.9108-1.4904-1.925099-1.4904zm8.611199 8.921699c.9936 0 1.9044 0 1.9044-1.5318s-.9108-1.5318-1.9044-1.5318h-8.611199v3.0636zm21.279599 2.8773-1.552499-3.0843h-8.6733l-1.5525 3.0843h-4.0986l7.4727-14.489999h5.0301l7.493399 14.489999zm-8.838899-5.8581h5.8995l-2.9394-5.878799zm21.341699-12.150899c-.8694 0-1.1385.6624-1.1385 1.8423h-3.0222c0-2.2977.9108-4.347 3.2499-4.347 2.3598 0 2.9187 2.0493 4.5747 2.0493.8901 0 1.1592-.6624 1.1592-1.8423h3.022199c0 2.2977-.931499 4.347-3.249899 4.347-2.3805 0-2.9394-2.0493-4.5954-2.0493zm7.452 3.519h3.725999v14.489999h-5.071499l-9.8739-10.867499v10.867499h-3.726v-14.489999h5.0508l9.8946 10.888199zm14.075999 14.696999c-6.3756 0-9.108-2.6496-9.108-7.4727 0-4.802399 2.7324-7.431299 9.108-7.431299 6.3549 0 9.107999 2.6496 9.107999 7.431299 0 4.8024-2.753099 7.4727-9.107999 7.4727zm0-3.1257c3.8709 0 5.382-1.3869 5.382-4.347 0-2.939399-1.4904-4.305599-5.382-4.305599s-5.382 1.3455-5.382 4.305599c0 2.9808 1.5111 4.347 5.382 4.347z"/><path d="m1212.88002 644.680015c1.908 0 3.216 1.212 3.216 3.084s-1.308 3.072-3.216 3.072h-4.44v2.244h-2.16v-8.4zm-.6 4.344c.648 0 1.656 0 1.656-1.26 0-1.272-1.008-1.272-1.656-1.272h-3.84v2.532zm11.844 4.056-.9-1.788h-5.028l-.9 1.788h-2.376l4.332-8.4h2.916l4.344 8.4zm-5.124-3.396h3.42l-1.704-3.408zm7.26.504h2.16c0 .888.72 1.296 3.456 1.296 2.268 0 2.952-.252 2.952-.912 0-.696-.48-.816-3.204-.948-3.66-.168-5.112-.744-5.112-2.628 0-1.848 1.884-2.436 5.028-2.436 3.168 0 5.088.792 5.088 2.868h-2.16c0-.924-.924-1.152-3.168-1.152-2.124 0-2.628.204-2.628.828 0 .648.504.768 2.952.912 3.312.18 5.364.36 5.364 2.484 0 2.244-2.124 2.7-5.232 2.7-3.444 0-5.496-.588-5.496-3.012zm13.668-5.508v8.4h-2.16v-8.4zm3.12 6.588h6.48v1.812h-8.64v-8.4h2.16zm9.48 0h6.48v1.812h-8.64v-8.4h2.16zm12.072 1.932c-3.696 0-5.28-1.536-5.28-4.332 0-2.784 1.584-4.308 5.28-4.308 3.684 0 5.28 1.536 5.28 4.308 0 2.784-1.596 4.332-5.28 4.332zm0-1.812c2.244 0 3.12-.804 3.12-2.52 0-1.704-.864-2.496-3.12-2.496s-3.12.78-3.12 2.496c0 1.728.876 2.52 3.12 2.52z"/><path d="m1359.43602 674.788c0-2.784 1.584-4.308 5.28-4.308 3.348 0 5.028 1.272 5.244 3.696h-2.196c-.204-1.356-1.248-1.884-3.048-1.884-2.196 0-3.12.78-3.12 2.496 0 1.728.936 2.52 3.12 2.52 1.788 0 2.844-.54 3.048-1.908h2.196c-.216 2.436-1.896 3.72-5.244 3.72-3.696 0-5.28-1.536-5.28-4.332zm16.464 4.332c-3.696 0-5.28-1.536-5.28-4.332 0-2.784 1.584-4.308 5.28-4.308 3.684 0 5.28 1.536 5.28 4.308 0 2.784-1.596 4.332-5.28 4.332zm0-1.812c2.244 0 3.12-.804 3.12-2.52 0-1.704-.864-2.496-3.12-2.496s-3.12.78-3.12 2.496c0 1.728.876 2.52 3.12 2.52zm14.724-6.708h2.16v8.4h-2.94l-5.724-6.3v6.3h-2.16v-8.4h2.928l5.736 6.312zm16.788 4.2c.804.384 1.296.96 1.296 1.836 0 1.86-1.692 2.484-4.644 2.484-2.916 0-4.884-.624-4.884-3.3h2.16c0 1.344.996 1.488 2.844 1.488 1.716 0 2.364-.144 2.364-.948 0-.84-.648-.912-3.564-.912v-1.296c2.856 0 3.564-.072 3.564-.912 0-.732-.504-.948-2.364-.948-2.052 0-2.844.216-2.844 1.488h-2.16c0-2.676 1.968-3.3 4.884-3.3 2.952 0 4.644.624 4.644 2.484 0 .876-.492 1.452-1.296 1.836zm7.572-.012c0-2.784 1.584-4.308 5.28-4.308 3.348 0 5.028 1.272 5.244 3.696h-2.196c-.204-1.356-1.248-1.884-3.048-1.884-2.196 0-3.12.78-3.12 2.496 0 1.728.936 2.52 3.12 2.52 1.788 0 2.844-.54 3.048-1.908h2.196c-.216 2.436-1.896 3.72-5.244 3.72-3.696 0-5.28-1.536-5.28-4.332zm19.092 4.212-.9-1.788h-5.028l-.9 1.788h-2.376l4.332-8.4h2.916l4.344 8.4zm-5.124-3.396h3.42l-1.704-3.408zm20.892-5.004v8.4h-2.16v-5.76l-3.492 5.76h-1.56l-3.492-5.76v5.76h-2.16v-8.4h2.916l3.516 5.928 3.516-5.928zm9.72 8.4-.9-1.788h-5.028l-.9 1.788h-2.376l4.332-8.4h2.916l4.344 8.4zm-5.124-3.396h3.42l-1.704-3.408zm7.26.504h2.16c0 .888.72 1.296 3.456 1.296 2.268 0 2.952-.252 2.952-.912 0-.696-.48-.816-3.204-.948-3.66-.168-5.112-.744-5.112-2.628 0-1.848 1.884-2.436 5.028-2.436 3.168 0 5.088.792 5.088 2.868h-2.16c0-.924-.924-1.152-3.168-1.152-2.124 0-2.628.204-2.628.828 0 .648.504.768 2.952.912 3.312.18 5.364.36 5.364 2.484 0 2.244-2.124 2.7-5.232 2.7-3.444 0-5.496-.588-5.496-3.012zm23.22-5.508c2.172 0 4.08 1.344 4.08 4.2s-1.908 4.2-4.08 4.2h-6.096v-8.4zm-.816 6.588c1.632 0 2.736-.348 2.736-2.388s-1.104-2.388-2.736-2.388h-3.12v4.776zm14.556-4.872h-6.72v1.704h6.72v1.56h-6.72v1.704h6.72v1.716h-8.88v-8.4h8.88zm16.956 2.472c0 2.916-1.596 4.332-5.28 4.332-3.696 0-5.28-1.404-5.28-4.332v-4.188h2.16v4.188c0 1.176.324 2.52 3.12 2.52s3.12-1.356 3.12-2.52v-4.188h2.16zm9.564-4.188h2.16v8.4h-2.94l-5.724-6.3v6.3h-2.16v-8.4h2.928l5.736 6.312zm11.88 8.4-.9-1.788h-5.028l-.9 1.788h-2.376l4.332-8.4h2.916l4.344 8.4zm-5.124-3.396h3.42l-1.704-3.408zm20.508-5.004c1.908 0 3.216 1.212 3.216 3.084s-1.308 3.072-3.216 3.072h-4.44v2.244h-2.16v-8.4zm-.6 4.344c.648 0 1.656 0 1.656-1.26 0-1.272-1.008-1.272-1.656-1.272h-3.84v2.532zm6.756 2.244h6.48v1.812h-8.64v-8.4h2.16zm16.272 1.812-.9-1.788h-5.028l-.9 1.788h-2.376l4.332-8.4h2.916l4.344 8.4zm-5.124-3.396h3.42l-1.704-3.408zm17.628-5.004v1.812l-6.384 4.776h6.384v1.812h-9.48v-1.812l6.372-4.776h-6.372v-1.812zm9.84 8.4-.9-1.788h-5.028l-.9 1.788h-2.376l4.332-8.4h2.916l4.344 8.4zm-5.124-3.396h3.42l-1.704-3.408z"/><path d="m296.8 651.148015v1.704h-3.876v3.228h-2.052v-3.228h-3.672v-1.704h3.672v-3.228h2.052v3.228zm-91.872 18.72c0-2.784 1.584-4.308 5.28-4.308 3.348 0 5.028 1.272 5.244 3.696h-2.196c-.204-1.356-1.248-1.884-3.048-1.884-2.196 0-3.12.78-3.12 2.496 0 1.728.936 2.52 3.12 2.52 1.788 0 2.844-.54 3.048-1.908h2.196c-.216 2.436-1.896 3.72-5.244 3.72-3.696 0-5.28-1.536-5.28-4.332zm19.092 4.212-.9-1.788h-5.028l-.9 1.788h-2.376l4.332-8.4h2.916l4.344 8.4zm-5.124-3.396h3.42l-1.704-3.408zm20.892-5.004v8.4h-2.16v-5.76l-3.492 5.76h-1.56l-3.492-5.76v5.76h-2.16v-8.4h2.916l3.516 5.928 3.516-5.928zm9.72 8.4-.9-1.788h-5.028l-.9 1.788h-2.376l4.332-8.4h2.916l4.344 8.4zm-5.124-3.396h3.42l-1.704-3.408zm20.004-5.004c2.172 0 4.08 1.344 4.08 4.2s-1.908 4.2-4.08 4.2h-6.096v-8.4zm-.816 6.588c1.632 0 2.736-.348 2.736-2.388s-1.104-2.388-2.736-2.388h-3.12v4.776zm14.556-4.872h-6.72v1.704h6.72v1.56h-6.72v1.704h6.72v1.716h-8.88v-8.4h8.88zm16.956 2.472c0 2.916-1.596 4.332-5.28 4.332-3.696 0-5.28-1.404-5.28-4.332v-4.188h2.16v4.188c0 1.176.324 2.52 3.12 2.52s3.12-1.356 3.12-2.52v-4.188h2.16zm9.564-4.188h2.16v8.4h-2.94l-5.724-6.3v6.3h-2.16v-8.4h2.928l5.736 6.312zm11.88 8.4-.9-1.788h-5.028l-.9 1.788h-2.376l4.332-8.4h2.916l4.344 8.4zm-5.124-3.396h3.42l-1.704-3.408zm20.508-5.004c1.908 0 3.216 1.212 3.216 3.084s-1.308 3.072-3.216 3.072h-4.44v2.244h-2.16v-8.4zm-.6 4.344c.648 0 1.656 0 1.656-1.26 0-1.272-1.008-1.272-1.656-1.272h-3.84v2.532zm6.756 2.244h6.48v1.812h-8.64v-8.4h2.16zm16.272 1.812-.9-1.788h-5.028l-.9 1.788h-2.376l4.332-8.4h2.916l4.344 8.4zm-5.124-3.396h3.42l-1.704-3.408zm17.628-5.004v1.812l-6.384 4.776h6.384v1.812h-9.48v-1.812l6.372-4.776h-6.372v-1.812zm9.84 8.4-.9-1.788h-5.028l-.9 1.788h-2.376l4.332-8.4h2.916l4.344 8.4zm-5.124-3.396h3.42l-1.704-3.408z"/><path d="m685.3 573.068v1.704h-3.876v3.228h-2.052v-3.228h-3.672v-1.704h3.672v-3.228h2.052v3.228zm-58.242 14.532c2.172 0 4.08 1.344 4.08 4.2s-1.908 4.2-4.08 4.2h-6.096v-8.4zm-.816 6.588c1.632 0 2.736-.348 2.736-2.388s-1.104-2.388-2.736-2.388h-3.12v4.776zm14.556-4.872h-6.72v1.704h6.72v1.56h-6.72v1.704h6.72v1.716h-8.88v-8.4h8.88zm.66 3.792h2.16c0 .888.72 1.296 3.456 1.296 2.268 0 2.952-.252 2.952-.912 0-.696-.48-.816-3.204-.948-3.66-.168-5.112-.744-5.112-2.628 0-1.848 1.884-2.436 5.028-2.436 3.168 0 5.088.792 5.088 2.868h-2.16c0-.924-.924-1.152-3.168-1.152-2.124 0-2.628.204-2.628.828 0 .648.504.768 2.952.912 3.312.18 5.364.36 5.364 2.484 0 2.244-2.124 2.7-5.232 2.7-3.444 0-5.496-.588-5.496-3.012zm19.8 2.892-.9-1.788h-5.028l-.9 1.788h-2.376l4.332-8.4h2.916l4.344 8.4zm-5.124-3.396h3.42l-1.704-3.408zm9.648.636-4.752-5.64h2.604l3.228 3.828 3.228-3.828h2.604l-4.752 5.64v2.76h-2.16zm18.036-1.452c0 2.916-1.596 4.332-5.28 4.332-3.696 0-5.28-1.404-5.28-4.332v-4.188h2.16v4.188c0 1.176.324 2.52 3.12 2.52s3.12-1.356 3.12-2.52v-4.188h2.16zm9.564-4.188h2.16v8.4h-2.94l-5.724-6.3v6.3h-2.16v-8.4h2.928l5.736 6.312zm11.88 8.4-.9-1.788h-5.028l-.9 1.788h-2.376l4.332-8.4h2.916l4.344 8.4zm-5.124-3.396h3.42l-1.704-3.408zm14.124-5.004c2.172 0 4.08 1.344 4.08 4.2s-1.908 4.2-4.08 4.2h-6.096v-8.4zm-.816 6.588c1.632 0 2.736-.348 2.736-2.388s-1.104-2.388-2.736-2.388h-3.12v4.776zm10.836 1.932c-3.696 0-5.28-1.536-5.28-4.332 0-2.784 1.584-4.308 5.28-4.308 3.684 0 5.28 1.536 5.28 4.308 0 2.784-1.596 4.332-5.28 4.332zm0-1.812c2.244 0 3.12-.804 3.12-2.52 0-1.704-.864-2.496-3.12-2.496s-3.12.78-3.12 2.496c0 1.728.876 2.52 3.12 2.52zm15.876-3.624c0 1.368-.696 2.376-1.824 2.82l1.548 2.496h-2.544l-1.356-2.244h-3.48v2.244h-2.16v-8.4h6.6c1.908 0 3.216 1.212 3.216 3.084zm-7.656-1.272v2.532h3.84c.648 0 1.656 0 1.656-1.26 0-1.272-1.008-1.272-1.656-1.272z"/><path d="m880.88002 754.680015c1.908 0 3.216 1.212 3.216 3.084s-1.308 3.072-3.216 3.072h-4.44v2.244h-2.16v-8.4zm-.6 4.344c.648 0 1.656 0 1.656-1.26 0-1.272-1.008-1.272-1.656-1.272h-3.84v2.532zm11.844 4.056-.9-1.788h-5.028l-.9 1.788h-2.376l4.332-8.4h2.916l4.344 8.4zm-5.124-3.396h3.42l-1.704-3.408zm7.26.504h2.16c0 .888.72 1.296 3.456 1.296 2.268 0 2.952-.252 2.952-.912 0-.696-.48-.816-3.204-.948-3.66-.168-5.112-.744-5.112-2.628 0-1.848 1.884-2.436 5.028-2.436 3.168 0 5.088.792 5.088 2.868h-2.16c0-.924-.924-1.152-3.168-1.152-2.124 0-2.628.204-2.628.828 0 .648.504.768 2.952.912 3.312.18 5.364.36 5.364 2.484 0 2.244-2.124 2.7-5.232 2.7-3.444 0-5.496-.588-5.496-3.012zm13.668-5.508v8.4h-2.16v-8.4zm3.12 6.588h6.48v1.812h-8.64v-8.4h2.16zm9.48 0h6.48v1.812h-8.64v-8.4h2.16zm12.072 1.932c-3.696 0-5.28-1.536-5.28-4.332 0-2.784 1.584-4.308 5.28-4.308 3.684 0 5.28 1.536 5.28 4.308 0 2.784-1.596 4.332-5.28 4.332zm0-1.812c2.244 0 3.12-.804 3.12-2.52 0-1.704-.864-2.496-3.12-2.496s-3.12.78-3.12 2.496c0 1.728.876 2.52 3.12 2.52z"/><path d="m10.2820204 441.080015-.89999999-1.788h-5.028l-.9 1.788h-2.376l4.332-8.4h2.916l4.34399999 8.4zm-5.12399999-3.396h3.42l-1.704-3.408zm6.94799999-.816c0-2.784 1.584-4.308 5.28-4.308 3.348 0 5.028 1.272 5.244 3.696h-2.196c-.204-1.356-1.248-1.884-3.048-1.884-2.196 0-3.12.78-3.12 2.496 0 1.728.936 2.52 3.12 2.52 1.788 0 2.844-.54 3.048-1.908h2.196c-.216 2.436-1.896 3.72-5.244 3.72-3.696 0-5.28-1.536-5.28-4.332zm11.184 0c0-2.784 1.584-4.308 5.28-4.308 3.348 0 5.028 1.272 5.244 3.696h-2.196c-.204-1.356-1.248-1.884-3.048-1.884-2.196 0-3.12.78-3.12 2.496 0 1.728.936 2.52 3.12 2.52 1.788 0 2.844-.54 3.048-1.908h2.196c-.216 2.436-1.896 3.72-5.244 3.72-3.696 0-5.28-1.536-5.28-4.332zm20.184-2.472h-6.72v1.704h6.72v1.56h-6.72v1.704h6.72v1.716h-8.88v-8.4h8.88zm.66 3.792h2.16c0 .888.72 1.296 3.456 1.296 2.268 0 2.952-.252 2.952-.912 0-.696-.48-.816-3.204-.948-3.66-.168-5.112-.744-5.112-2.628 0-1.848 1.884-2.436 5.028-2.436 3.168 0 5.088.792 5.088 2.868h-2.16c0-.924-.924-1.152-3.168-1.152-2.124 0-2.628.204-2.628.828 0 .648.504.768 2.952.912 3.312.18 5.364.36 5.364 2.484 0 2.244-2.124 2.7-5.232 2.7-3.444 0-5.496-.588-5.496-3.012zm16.548 3.012c-3.696 0-5.28-1.536-5.28-4.332 0-2.784 1.584-4.308 5.28-4.308 3.684 0 5.28 1.536 5.28 4.308 0 2.784-1.596 4.332-5.28 4.332zm0-1.812c2.244 0 3.12-.804 3.12-2.52 0-1.704-.864-2.496-3.12-2.496s-3.12.78-3.12 2.496c0 1.728.876 2.52 3.12 2.52z"/><path d="m1072.39646 550.193975c1.242.7659 2.0493 1.9665 2.0493 3.6432 0 2.4426-1.4283 4.2228-4.7196 4.2228h-13.248v-14.49h12.7512c3.2913 0 4.3056 1.6767 4.3056 3.8088 0 1.0143-.414 2.0079-1.1385 2.8152zm-12.1923-3.933v3.0015h7.7004c.9936 0 1.9044 0 1.9044-1.5111 0-1.4904-.9108-1.4904-1.9251-1.4904zm8.6112 8.9217c.9936 0 1.9044 0 1.9044-1.5318s-.9108-1.5318-1.9044-1.5318h-8.6112v3.0636zm21.2796 2.8773-1.5525-3.0843h-8.6733l-1.5525 3.0843h-4.0986l7.4727-14.49h5.0301l7.4934 14.49zm-8.8389-5.8581h5.8995l-2.9394-5.8788zm21.3417-12.150899c-.8694 0-1.1385.6624-1.1385 1.8423h-3.0222c0-2.2977.9108-4.347 3.2499-4.347 2.3598 0 2.9187 2.0493 4.5747 2.0493.8901 0 1.1592-.6624 1.1592-1.8423h3.0222c0 2.2977-.9315 4.347-3.2499 4.347-2.3805 0-2.9394-2.0493-4.5954-2.0493zm7.452 3.518999h3.726v14.49h-5.0715l-9.8739-10.8675v10.8675h-3.726v-14.49h5.0508l9.8946 10.8882zm14.076 14.697c-6.3756 0-9.108-2.6496-9.108-7.4727 0-4.8024 2.7324-7.4313 9.108-7.4313 6.3549 0 9.108 2.6496 9.108 7.4313 0 4.8024-2.7531 7.4727-9.108 7.4727zm0-3.1257c3.8709 0 5.382-1.3869 5.382-4.347 0-2.9394-1.4904-4.3056-5.382-4.3056s-5.382 1.3455-5.382 4.3056c0 2.9808 1.5111 4.347 5.382 4.347z"/><path d="m1408.02222 642.510001c3.7467 0 7.038 2.3184 7.038 7.244999 0 4.9266-3.2913 7.245-7.038 7.245h-10.5156v-14.489999zm-1.4076 11.364299c2.8152 0 4.7196-.6003 4.7196-4.1193 0-3.518999-1.9044-4.119299-4.7196-4.119299h-5.382v8.238599zm18.6921 3.3327c-6.3756 0-9.108-2.6496-9.108-7.4727 0-4.802399 2.7324-7.431299 9.108-7.431299 6.3549 0 9.108 2.6496 9.108 7.431299 0 4.8024-2.7531 7.4727-9.108 7.4727zm0-3.1257c3.8709 0 5.382-1.3869 5.382-4.347 0-2.9394-1.4904-4.305599-5.382-4.305599s-5.382 1.345499-5.382 4.305599c0 2.9808 1.5111 4.347 5.382 4.347zm27.3861-6.2514c0 2.3598-1.2006 4.0986-3.1464 4.8645l2.6703 4.3056h-4.3884l-2.3391-3.8709h-6.003v3.8709h-3.726v-14.489999h11.385c3.2913 0 5.5476 2.0907 5.5476 5.319899zm-13.2066-2.194199v4.367699h6.624c1.1178 0 2.8566 0 2.8566-2.1735 0-2.194199-1.7388-2.194199-2.8566-2.194199zm36.6183-3.1257v14.489999h-3.726v-9.936l-6.0237 9.936h-2.691l-6.0237-9.936v9.936h-3.726v-14.489999h5.0301l6.0651 10.225799 6.0651-10.225799zm5.382 0v14.489999h-3.726v-14.489999zm19.0233 0v3.1257h-7.038v11.364299h-3.726v-11.364299h-7.038v-3.1257zm9.4392 14.696999c-6.3756 0-9.108-2.6496-9.108-7.4727 0-4.802399 2.7324-7.431299 9.108-7.431299 6.3549 0 9.108 2.6496 9.108 7.431299 0 4.8024-2.7531 7.4727-9.108 7.4727zm0-3.1257c3.8709 0 5.382-1.3869 5.382-4.347 0-2.9394-1.4904-4.305599-5.382-4.305599s-5.382 1.345499-5.382 4.305599c0 2.9808 1.5111 4.347 5.382 4.347zm27.3861-6.2514c0 2.3598-1.2006 4.0986-3.1464 4.8645l2.6703 4.3056h-4.3884l-2.3391-3.8709h-6.003v3.8709h-3.726v-14.489999h11.385c3.2913 0 5.5476 2.0907 5.5476 5.319899zm-13.2066-2.194199v4.367699h6.624c1.1178 0 2.8566 0 2.8566-2.1735 0-2.194199-1.7388-2.194199-2.8566-2.194199zm18.1539-3.1257v14.489999h-3.726v-14.489999zm10.35 14.696999c-6.3756 0-9.108-2.6496-9.108-7.4727 0-4.802399 2.7324-7.431299 9.108-7.431299 6.3549 0 9.108 2.6496 9.108 7.431299 0 4.8024-2.7531 7.4727-9.108 7.4727zm0-3.1257c3.8709 0 5.382-1.3869 5.382-4.347 0-2.9394-1.4904-4.305599-5.382-4.305599s-5.382 1.345499-5.382 4.305599c0 2.9808 1.5111 4.347 5.382 4.347z"/><path d="m1309.15965 289.590016c3.7467 0 7.038 2.3184 7.038 7.245 0 4.926599-3.2913 7.244999-7.038 7.244999h-10.5156v-14.489999zm-1.4076 11.364299c2.8152 0 4.7196-.6003 4.7196-4.119299 0-3.519-1.9044-4.1193-4.7196-4.1193h-5.382v8.238599zm18.6921 3.3327c-6.3756 0-9.108-2.6496-9.108-7.472699 0-4.8024 2.7324-7.4313 9.108-7.4313 6.3549 0 9.108 2.6496 9.108 7.4313 0 4.802399-2.7531 7.472699-9.108 7.472699zm0-3.1257c3.8709 0 5.382-1.3869 5.382-4.346999 0-2.9394-1.4904-4.3056-5.382-4.3056s-5.382 1.3455-5.382 4.3056c0 2.980799 1.5111 4.346999 5.382 4.346999zm27.3861-6.251399c0 2.3598-1.2006 4.098599-3.1464 4.864499l2.6703 4.3056h-4.3884l-2.3391-3.8709h-6.003v3.8709h-3.726v-14.489999h11.385c3.2913 0 5.5476 2.0907 5.5476 5.3199zm-13.2066-2.1942v4.3677h6.624c1.1178 0 2.8566 0 2.8566-2.1735 0-2.1942-1.7388-2.1942-2.8566-2.1942zm36.6183-3.1257v14.489999h-3.726v-9.935999l-6.0237 9.935999h-2.691l-6.0237-9.935999v9.935999h-3.726v-14.489999h5.0301l6.0651 10.225799 6.0651-10.225799zm5.382 0v14.489999h-3.726v-14.489999zm19.0233 0v3.1257h-7.038v11.364299h-3.726v-11.364299h-7.038v-3.1257zm9.4392 14.696999c-6.3756 0-9.108-2.6496-9.108-7.472699 0-4.8024 2.7324-7.4313 9.108-7.4313 6.35489 0 9.10799 2.6496 9.10799 7.4313 0 4.802399-2.7531 7.472699-9.10799 7.472699zm0-3.1257c3.87089 0 5.38199-1.3869 5.38199-4.346999 0-2.9394-1.4904-4.3056-5.38199-4.3056-3.8916 0-5.382 1.3455-5.382 4.3056 0 2.980799 1.5111 4.346999 5.382 4.346999zm27.38609-6.251399c0 2.3598-1.2006 4.098599-3.1464 4.864499l2.6703 4.3056h-4.3884l-2.3391-3.8709h-6.003v3.8709h-3.726v-14.489999h11.385c3.2913 0 5.5476 2.0907 5.5476 5.3199zm-13.2066-2.1942v4.3677h6.624c1.1178 0 2.8566 0 2.8566-2.1735 0-2.1942-1.7388-2.1942-2.8566-2.1942zm18.1539-3.1257v14.489999h-3.726v-14.489999zm10.35 14.696999c-6.3756 0-9.108-2.6496-9.108-7.472699 0-4.8024 2.7324-7.4313 9.108-7.4313 6.3549 0 9.108 2.6496 9.108 7.4313 0 4.802399-2.7531 7.472699-9.108 7.472699zm0-3.1257c3.8709 0 5.382-1.3869 5.382-4.346999 0-2.9394-1.4904-4.3056-5.382-4.3056s-5.382 1.3455-5.382 4.3056c0 2.980799 1.5111 4.346999 5.382 4.346999zm-143.89604 18.428701v14.489999h-3.726v-9.935999l-6.0237 9.935999h-2.691l-6.0237-9.935999v9.935999h-3.726v-14.489999h5.0301l6.0651 10.225799 6.0651-10.225799zm16.767 14.489999-1.5525-3.0843h-8.6733l-1.5525 3.0843h-4.0986l7.4727-14.489999h5.0301l7.4934 14.489999zm-8.8389-5.858099h5.8995l-2.9394-5.8788zm27.5517-8.6319v3.1257h-7.038v11.364299h-3.726v-11.364299h-7.038v-3.1257zm18.1539 5.3199c0 2.3598-1.2006 4.098599-3.1464 4.864499l2.6703 4.3056h-4.3884l-2.3391-3.8709h-6.003v3.8709h-3.726v-14.489999h11.385c3.2913 0 5.5476 2.0907 5.5476 5.3199zm-13.2066-2.1942v4.3677h6.624c1.1178 0 2.8566 0 2.8566-2.1735 0-2.1942-1.7388-2.1942-2.8566-2.1942zm18.1539-3.1257v14.489999h-3.726v-14.489999zm23.8464 0v14.489999h-3.726v-9.935999l-6.0237 9.935999h-2.691l-6.0237-9.935999v9.935999h-3.726v-14.489999h5.0301l6.0651 10.225799 6.0651-10.225799zm10.35 14.696999c-6.3756 0-9.108-2.6496-9.108-7.472699 0-4.8024 2.7324-7.4313 9.108-7.4313 6.3549 0 9.108 2.6496 9.108 7.4313 0 4.802399-2.7531 7.472699-9.108 7.472699zm0-3.1257c3.8709 0 5.382-1.3869 5.382-4.346999 0-2.9394-1.4904-4.3056-5.382-4.3056s-5.382 1.3455-5.382 4.3056c0 2.980799 1.5111 4.346999 5.382 4.346999zm25.39889-11.571299h3.726v14.489999h-5.0715l-9.8739-10.867499v10.867499h-3.726v-14.489999h5.0508l9.8946 10.888199zm9.108 0v14.489999h-3.726v-14.489999zm16.767 14.489999-1.5525-3.0843h-8.6733l-1.5525 3.0843h-4.0986l7.4727-14.489999h5.0301l7.4934 14.489999zm-8.8389-5.858099h5.8995l-2.9394-5.8788zm17.5743 2.732399h11.178v3.1257h-14.904v-14.489999h3.726z"/><path d="m962.812166 9.51000068c3.2913 0 5.5476 2.09069992 5.5476 5.31989972 0 3.2291999-2.2563 5.2991998-5.5476 5.2991998h-7.658999v3.8708998h-3.726v-14.48999932zm-1.035 7.49339962c1.1178 0 2.8566 0 2.8566-2.1734999 0-2.1941999-1.7388-2.1941999-2.8566-2.1941999h-6.623999v4.3676998zm20.4309 6.9965997-1.5525-3.0842999h-8.6733l-1.5525 3.0842999h-4.0986l7.4727-14.48999932h5.0301l7.493399 14.48999932zm-8.8389-5.8580997h5.8995l-2.9394-5.8787997zm30.780894-3.3119999c0 2.3597999-1.2006 4.0985998-3.1464 4.8644998l2.6703 4.3055998h-4.388395l-2.3391-3.8708998h-6.003v3.8708998h-3.726v-14.48999932h11.385c3.291295 0 5.547595 2.09069992 5.547595 5.31989972zm-13.206595-2.1941999v4.3676998h6.624c1.1178 0 2.856595 0 2.856595-2.1734999 0-2.1941999-1.738795-2.1941999-2.856595-2.1941999zm31.360495 2.1941999c0 2.3597999-1.2006 4.0985998-3.1464 4.8644998l2.6703 4.3055998h-4.3884l-2.3391-3.8708998h-6.003v3.8708998h-3.726v-14.48999932h11.385c3.2913 0 5.5476 2.09069992 5.5476 5.31989972zm-13.2066-2.1941999v4.3676998h6.624c1.1178 0 2.8566 0 2.8566-2.1734999 0-2.1941999-1.7388-2.1941999-2.8566-2.1941999zm18.1539-3.12569982v14.48999932h-3.726v-14.48999932zm5.382 11.36429942h11.178v3.1256999h-14.904v-14.48999932h3.726zm16.353 0h11.178v3.1256999h-14.904v-14.48999932h3.726zm28.0692 3.1256999-1.5525-3.0842999h-8.6733l-1.5525 3.0842999h-4.0986l7.4727-14.48999932h5.0301l7.4934 14.48999932zm-8.8389-5.8580997h5.8995l-2.9394-5.8787997z"/><path d="m790.255475 9.51000068c3.7467 0 7.037999 2.31839992 7.037999 7.24499962 0 4.9265998-3.291299 7.2449997-7.037999 7.2449997h-10.5156v-14.48999932zm-1.4076 11.36429942c2.8152 0 4.7196-.6002999 4.7196-4.1192998 0-3.5189998-1.9044-4.1192998-4.7196-4.1192998h-5.382v8.2385996zm25.109099-8.4041996h-11.592v2.9393999h11.592v2.6909999h-11.592v2.9393998h11.592v2.9600999h-15.318v-14.48999932h15.318zm1.0143 4.2641998c0-4.8023997 2.732399-7.43129961 9.107999-7.43129961 5.7753 0 8.6733 2.19419991 9.0459 6.37559971h-3.7881c-.3519-2.3390999-2.1528-3.2498999-5.2578-3.2498999-3.7881 0-5.382 1.3455-5.382 4.3055998 0 2.9807999 1.6146 4.3469998 5.382 4.3469998 3.0843 0 4.9059-.9314999 5.2578-3.2912998h3.7881c-.3726 4.2020998-3.2706 6.4169997-9.0459 6.4169997-6.3756 0-9.107999-2.6495999-9.107999-7.4726997zm39.205798-7.22429962-8.7768 6.43769972 8.7768 8.0522996h-5.1543l-6.3756-6.0236997-4.4505 3.2498998v2.7737999h-3.725999v-14.48999932h3.725999v7.51409962l10.3293-7.51409962z"/></g></g></svg>