<svg height="191" viewBox="0 0 383 191" width="383" xmlns="http://www.w3.org/2000/svg"><g fill="none" fill-rule="evenodd"><g fill="#e0e6ff" transform="translate(.283829 14.672556)"><path d="m40.1973455 67.0773456v-16.4612217-34.0211706h87.4647605v66.9568327h142.36353v-58.6019379h90.460438v73.0759105h18.849394v76.1115514h-361.3716191v-70.060979h4.0974071v-36.9989854zm181.2377925-62.52953576h25.240344v14.32560096h-25.240344z"/><path d="m154.354942 0h92.09315 133.023437v23.1938302l-.261313 74.1645815-18.820614-.4900621.146088-72.082786h-90.623176v58.4393565h-142.346448v-66.3980237h-87.3202203v49.8974255h-18.2810613c.0839256 17.1849022.0839256 29.5178973 0 36.9989851-5.0422095-.048414-12.25958336-.048414-21.65212164 0l-.31266276-103.723307z" opacity=".346959"/></g><g stroke="#4a90e2" stroke-width="4.693686" transform="translate(.446284 19.134924)"><path d="m295.741481 93.3614039h64.485666v-36.2437688"/><path d="m.15020807 99.2609392h43.30424323"/><path d="m17.7049225 109.471374v-10.2104348"/><path d="m127.403179 135.455539v-57.5926737"/><path d="m185.134638 77.8628653v21.3980739"/><path d="m232.722063 77.8628653v66.2773197"/><path d="m232.722063 120.646285h-47.587425v23.4939h15.794452"/><path d="m217.463289 144.140185h52.247511v-4.90016"/><path d="m289.470061 20.1344564h-19.703351v97.9052456"/><path d="m311.830767 121.546041h-13.348589v47.775877h80.565583v-34.39372"/><path d="m269.76671 68.4759616h15.739541"/><path d="m248.678908 78.7363942h21.087802"/><path d="m168.848736 78.7363942h21.087802"/><path d="m221.220629 16.2390912v-16.2390912h25.147602v16.2390912"/><path d="m137.001847 78.7363942h-9.598668v-16.8486285"/><path d="m17.4951271 157.78981v11.532108h112.4968929"/><path d="m146.524412 169.321918h54.809806"/><path d="m217.503007 169.321918h52.247511v-5.606538"/><path d="m381.507834 93.8056056h-4.862585"/><path d="m362.915251 20.1344564h-4.862585"/><path d="m276.306765 93.3280414h-4.862585"/><path d="m300.547727 96.1522312h-4.862585"/><path d="m235.028658 78.7363942h-24.775257"/><path d="m343.289266 20.1344564h-40.504437"/><path d="m127.403179 25.4356998v-13.7416959h-6.132643"/><path d="m109.086344 11.6940039h-35.8842329"/><path d="m42.3697118 11.7795616h-4.8625853"/><path d="m24.4831766 62.2619539h-4.8625853"/><path d="m24.4831766 73.3233638h-4.8625853"/><path d="m24.7043206 94.9754855h-5.1776812" transform="matrix(0 -1 1 0 -72.860005 117.090965)"/><path d="m39.9384192 44.0296502v20.718554"/></g><g stroke="#4a90e2" stroke-width=".5" transform="translate(18.247678 16.911211)"><path d="m22.2334967 64.6112998h-18.13608952v36.9989852h-4.09740718v70.060979h361.371619v-76.1115512h-18.849394v-73.0759105h-90.460438v58.6019379h-142.36353v-66.9568327h-87.4647603v34.0211706"/><path d="m180.68581 146.716922h21.28612"/><path d="m252.061787 120.601494v23.665348"/><path d="m172.231615 81.3131307v21.3178813c13.544576.200585 20.316864-6.9053753 20.316864-21.3178813-13.395889.0404041-20.168177.0404041-20.316864 0z"/><path d="m279.830137 100.258737v21.317881c13.544576.200585 20.316863-6.905375 20.316863-21.317881-13.395888.040404-20.168176.040404-20.316863 0z"/><path d="m252.529636 148.269963v21.317881c13.544575.200586 20.316863-6.905375 20.316863-21.317881-13.395889.040404-20.168176.040404-20.316863 0z" transform="matrix(0 -1 1 0 103.757099 421.619037)"/><path d="m257.707317 74.8410291v21.3178809c13.544576.2005855 20.316863-6.9053748 20.316863-21.3178809-13.395888.0404041-20.168176.0404041-20.316863 0z" transform="matrix(0 -1 1 0 182.363714 353.367784)"/><path d="m231.818911 120.263415v21.317881c13.544575.200585 20.316863-6.905375 20.316863-21.317881-13.395889.040404-20.168176.040404-20.316863 0z" transform="matrix(-1 0 0 -1 483.954686 261.84884)"/><path d="m4.56810547 75.4294019v21.3178809c13.54457563.2005855 20.31686343-6.9053748 20.31686343-21.3178809-13.3958888.0404042-20.1681766.0404042-20.31686343 0z" stroke-linejoin="round" transform="matrix(0 -1 1 0 -71.36387 100.816944)"/><path d="m250.293819 76.0496503h-140.692034"/><path d="m250.293819 70.6366199h-140.692034"/><path d="m250.293819 65.2235895h-140.692034"/><path d="m250.293819 59.810559h-140.692034"/><path d="m250.293819 54.3975286h-140.692034"/><path d="m250.293819 48.9844982h-140.692034"/><path d="m250.293819 43.5714678h-140.692034"/><path d="m250.293819 38.1584374h-140.692034"/><path d="m250.293819 32.745407h-140.692034"/><path d="m250.293819 27.3323766h-140.692034"/><path d="m250.293819 21.9193462h-140.692034"/><path d="m204.22609 16.5063158h-94.624305"/><path d="m204.22609 11.0932854h-68.114675"/><path d="m204.22609 5.680255h-68.114675"/><path d="m204.22609.26722459h-68.114675"/></g><g fill="#161d3a" fill-rule="nonzero" transform="translate(4.291506 .342419)"><path d="m46.9584944 149.200581c0-1.624.924-2.513 3.08-2.513 1.953 0 2.933.742 3.059 2.156h-1.281c-.119-.791-.728-1.099-1.778-1.099-1.281 0-1.82.455-1.82 1.456 0 1.008.546 1.47 1.82 1.47 1.043 0 1.659-.315 1.778-1.113h1.281c-.126 1.421-1.106 2.17-3.059 2.17-2.156 0-3.08-.896-3.08-2.527zm9.604 2.527c-2.156 0-3.08-.896-3.08-2.527 0-1.624.924-2.513 3.08-2.513 2.149 0 3.08.896 3.08 2.513 0 1.624-.931 2.527-3.08 2.527zm0-1.057c1.309 0 1.82-.469 1.82-1.47 0-.994-.504-1.456-1.82-1.456s-1.82.455-1.82 1.456c0 1.008.511 1.47 1.82 1.47zm11.039-3.913v4.9h-1.26v-3.36l-2.037 3.36h-.91l-2.037-3.36v3.36h-1.26v-4.9h1.701l2.051 3.458 2.051-3.458zm5.74 1.001h-3.92v.994h3.92v.91h-3.92v.994h3.92v1.001h-5.18v-4.9h5.18zm4.011-1.001c1.267 0 2.38.784 2.38 2.45s-1.113 2.45-2.38 2.45h-3.556v-4.9zm-.476 3.843c.952 0 1.596-.203 1.596-1.393s-.644-1.393-1.596-1.393h-1.82v2.786zm6.321 1.127c-2.156 0-3.08-.896-3.08-2.527 0-1.624.924-2.513 3.08-2.513 2.149 0 3.08.896 3.08 2.513 0 1.624-.931 2.527-3.08 2.527zm0-1.057c1.309 0 1.82-.469 1.82-1.47 0-.994-.504-1.456-1.82-1.456s-1.82.455-1.82 1.456c0 1.008.511 1.47 1.82 1.47zm9.261-2.114c0 .798-.406 1.386-1.064 1.645l.903 1.456h-1.484l-.791-1.309h-2.03v1.309h-1.26v-4.9h3.85c1.113 0 1.876.707 1.876 1.799zm-4.466-.742v1.477h2.24c.378 0 .966 0 .966-.735 0-.742-.588-.742-.966-.742z"/><path d="m64.5659944 75.6005814h3.78v1.057h-5.04v-4.9h1.26zm5.53-3.843v4.9h-1.26v-4.9zm5.677 0h1.414l-2.52 4.9h-1.722l-2.52-4.9h1.414l1.967 3.969zm2.975 0v4.9h-1.26v-4.9zm5.614 0h1.26v4.9h-1.715l-3.339-3.675v3.675h-1.26v-4.9h1.708l3.346 3.682zm4.711 3.094v-.819h3.108v2.625h-.931l-.056-.77c-.462.504-1.197.84-2.24.84-1.806 0-2.912-.896-2.912-2.52s1.106-2.52 3.122-2.52c1.96 0 2.94.763 3.017 1.981h-1.281c-.07-.371-.406-.924-1.736-.924-1.638 0-1.862.903-1.862 1.491 0 .595.231 1.519 1.862 1.519 1.218 0 1.708-.532 1.736-.903z"/><path d="m144.505633 140.465449c0-1.624.924-2.513 3.08-2.513 1.953 0 2.933.742 3.059 2.156h-1.281c-.119-.791-.728-1.099-1.778-1.099-1.281 0-1.82.455-1.82 1.456 0 1.008.546 1.47 1.82 1.47 1.043 0 1.659-.315 1.778-1.113h1.281c-.126 1.421-1.106 2.17-3.059 2.17-2.156 0-3.08-.896-3.08-2.527zm9.604 2.527c-2.156 0-3.08-.896-3.08-2.527 0-1.624.924-2.513 3.08-2.513 2.149 0 3.08.896 3.08 2.513 0 1.624-.931 2.527-3.08 2.527zm0-1.057c1.309 0 1.82-.469 1.82-1.47 0-.994-.504-1.456-1.82-1.456s-1.82.455-1.82 1.456c0 1.008.511 1.47 1.82 1.47zm3.465-1.47c0-1.624.924-2.513 3.08-2.513 1.953 0 2.933.742 3.059 2.156h-1.281c-.119-.791-.728-1.099-1.778-1.099-1.281 0-1.82.455-1.82 1.456 0 1.008.546 1.47 1.82 1.47 1.043 0 1.659-.315 1.778-1.113h1.281c-.126 1.421-1.106 2.17-3.059 2.17-2.156 0-3.08-.896-3.08-2.527zm7.854-2.443v4.9h-1.26v-4.9zm5.614 0h1.26v4.9h-1.715l-3.339-3.675v3.675h-1.26v-4.9h1.708l3.346 3.682zm6.93 4.9-.525-1.043h-2.933l-.525 1.043h-1.386l2.527-4.9h1.701l2.534 4.9zm-2.989-1.981h1.995l-.994-1.988z" transform="matrix(0 1 -1 0 302.408082 -21.463184)"/><path d="m181.435092 127.546398h3.24v.906h-4.32v-4.2h1.08zm8.136.906-.45-.894h-2.514l-.45.894h-1.188l2.166-4.2h1.458l2.172 4.2zm-2.562-1.698h1.71l-.852-1.704zm6.774-2.502h1.212l-2.16 4.2h-1.476l-2.16-4.2h1.212l1.686 3.402zm4.284 4.2-.45-.894h-2.514l-.45.894h-1.188l2.166-4.2h1.458l2.172 4.2zm-2.562-1.698h1.71l-.852-1.704zm7.062-2.502c1.086 0 2.04.672 2.04 2.1s-.954 2.1-2.04 2.1h-3.048v-4.2zm-.408 3.294c.816 0 1.368-.174 1.368-1.194s-.552-1.194-1.368-1.194h-1.56v2.388zm7.278-2.436h-3.36v.852h3.36v.78h-3.36v.852h3.36v.858h-4.44v-4.2h4.44zm5.298.684c0 .684-.348 1.188-.912 1.41l.774 1.248h-1.272l-.678-1.122h-1.74v1.122h-1.08v-4.2h3.3c.954 0 1.608.606 1.608 1.542zm-3.828-.636v1.266h1.92c.324 0 .828 0 .828-.63 0-.636-.504-.636-.828-.636zm6.762 3.354c-1.848 0-2.64-.768-2.64-2.166 0-1.392.792-2.154 2.64-2.154 1.842 0 2.64.768 2.64 2.154 0 1.392-.798 2.166-2.64 2.166zm0-.906c1.122 0 1.56-.402 1.56-1.26 0-.852-.432-1.248-1.56-1.248s-1.56.39-1.56 1.248c0 .864.438 1.26 1.56 1.26z"/><path d="m198.728494 151.377581c.36.222.594.57.594 1.056 0 .708-.414 1.224-1.368 1.224h-3.84v-4.2h3.696c.954 0 1.248.486 1.248 1.104 0 .294-.12.582-.33.816zm-3.534-1.14v.87h2.232c.288 0 .552 0 .552-.438 0-.432-.264-.432-.558-.432zm2.496 2.586c.288 0 .552 0 .552-.444s-.264-.444-.552-.444h-2.496v.888zm6.168.834-.45-.894h-2.514l-.45.894h-1.188l2.166-4.2h1.458l2.172 4.2zm-2.562-1.698h1.71l-.852-1.704zm6.186-3.522c-.252 0-.33.192-.33.534h-.876c0-.666.264-1.26.942-1.26.684 0 .846.594 1.326.594.258 0 .336-.192.336-.534h.876c0 .666-.27 1.26-.942 1.26-.69 0-.852-.594-1.332-.594zm2.16 1.02h1.08v4.2h-1.47l-2.862-3.15v3.15h-1.08v-4.2h1.464l2.868 3.156zm4.08 4.26c-1.848 0-2.64-.768-2.64-2.166 0-1.392.792-2.154 2.64-2.154 1.842 0 2.64.768 2.64 2.154 0 1.392-.798 2.166-2.64 2.166zm0-.906c1.122 0 1.56-.402 1.56-1.26 0-.852-.432-1.248-1.56-1.248s-1.56.39-1.56 1.248c0 .864.438 1.26 1.56 1.26z"/><path d="m266.638494 140.457581c.954 0 1.608.606 1.608 1.542s-.654 1.536-1.608 1.536h-2.22v1.122h-1.08v-4.2zm-.3 2.172c.324 0 .828 0 .828-.63 0-.636-.504-.636-.828-.636h-1.92v1.266zm5.922 2.028-.45-.894h-2.514l-.45.894h-1.188l2.166-4.2h1.458l2.172 4.2zm-2.562-1.698h1.71l-.852-1.704zm3.63.252h1.08c0 .444.36.648 1.728.648 1.134 0 1.476-.126 1.476-.456 0-.348-.24-.408-1.602-.474-1.83-.084-2.556-.372-2.556-1.314 0-.924.942-1.218 2.514-1.218 1.584 0 2.544.396 2.544 1.434h-1.08c0-.462-.462-.576-1.584-.576-1.062 0-1.314.102-1.314.414 0 .324.252.384 1.476.456 1.656.09 2.682.18 2.682 1.242 0 1.122-1.062 1.35-2.616 1.35-1.722 0-2.748-.294-2.748-1.506zm6.834-2.754v4.2h-1.08v-4.2zm1.56 3.294h3.24v.906h-4.32v-4.2h1.08zm4.74 0h3.24v.906h-4.32v-4.2h1.08zm6.036.966c-1.848 0-2.64-.768-2.64-2.166 0-1.392.792-2.154 2.64-2.154 1.842 0 2.64.768 2.64 2.154 0 1.392-.798 2.166-2.64 2.166zm0-.906c1.122 0 1.56-.402 1.56-1.26 0-.852-.432-1.248-1.56-1.248s-1.56.39-1.56 1.248c0 .864.438 1.26 1.56 1.26z" transform="matrix(0 1 -1 0 421.796075 -136.680913)"/><path d="m306.819716 164.970618c0-1.392.792-2.154 2.64-2.154 1.674 0 2.514.636 2.622 1.848h-1.098c-.102-.678-.624-.942-1.524-.942-1.098 0-1.56.39-1.56 1.248 0 .864.468 1.26 1.56 1.26.894 0 1.422-.27 1.524-.954h1.098c-.108 1.218-.948 1.86-2.622 1.86-1.848 0-2.64-.768-2.64-2.166zm8.232 2.166c-1.848 0-2.64-.768-2.64-2.166 0-1.392.792-2.154 2.64-2.154 1.842 0 2.64.768 2.64 2.154 0 1.392-.798 2.166-2.64 2.166zm0-.906c1.122 0 1.56-.402 1.56-1.26 0-.852-.432-1.248-1.56-1.248s-1.56.39-1.56 1.248c0 .864.438 1.26 1.56 1.26zm7.362-3.354h1.08v4.2h-1.47l-2.862-3.15v3.15h-1.08v-4.2h1.464l2.868 3.156zm8.394 2.1c.402.192.648.48.648.918 0 .93-.846 1.242-2.322 1.242-1.458 0-2.442-.312-2.442-1.65h1.08c0 .672.498.744 1.422.744.858 0 1.182-.072 1.182-.474 0-.42-.324-.456-1.782-.456v-.648c1.428 0 1.782-.036 1.782-.456 0-.366-.252-.474-1.182-.474-1.026 0-1.422.108-1.422.744h-1.08c0-1.338.984-1.65 2.442-1.65 1.476 0 2.322.312 2.322 1.242 0 .438-.246.726-.648.918zm3.786-.006c0-1.392.792-2.154 2.64-2.154 1.674 0 2.514.636 2.622 1.848h-1.098c-.102-.678-.624-.942-1.524-.942-1.098 0-1.56.39-1.56 1.248 0 .864.468 1.26 1.56 1.26.894 0 1.422-.27 1.524-.954h1.098c-.108 1.218-.948 1.86-2.622 1.86-1.848 0-2.64-.768-2.64-2.166zm9.546 2.106-.45-.894h-2.514l-.45.894h-1.188l2.166-4.2h1.458l2.172 4.2zm-2.562-1.698h1.71l-.852-1.704zm10.446-2.502v4.2h-1.08v-2.88l-1.746 2.88h-.78l-1.746-2.88v2.88h-1.08v-4.2h1.458l1.758 2.964 1.758-2.964zm4.86 4.2-.45-.894h-2.514l-.45.894h-1.188l2.166-4.2h1.458l2.172 4.2zm-2.562-1.698h1.71l-.852-1.704zm3.63.252h1.08c0 .444.36.648 1.728.648 1.134 0 1.476-.126 1.476-.456 0-.348-.24-.408-1.602-.474-1.83-.084-2.556-.372-2.556-1.314 0-.924.942-1.218 2.514-1.218 1.584 0 2.544.396 2.544 1.434h-1.08c0-.462-.462-.576-1.584-.576-1.062 0-1.314.102-1.314.414 0 .324.252.384 1.476.456 1.656.09 2.682.18 2.682 1.242 0 1.122-1.062 1.35-2.616 1.35-1.722 0-2.748-.294-2.748-1.506zm-50.001 5.246c1.086 0 2.04.672 2.04 2.1s-.954 2.1-2.04 2.1h-3.048v-4.2zm-.408 3.294c.816 0 1.368-.174 1.368-1.194s-.552-1.194-1.368-1.194h-1.56v2.388zm7.278-2.436h-3.36v.852h3.36v.78h-3.36v.852h3.36v.858h-4.44v-4.2h4.44zm8.478 1.236c0 1.458-.798 2.166-2.64 2.166-1.848 0-2.64-.702-2.64-2.166v-2.094h1.08v2.094c0 .588.162 1.26 1.56 1.26s1.56-.678 1.56-1.26v-2.094h1.08zm4.782-2.094h1.08v4.2h-1.47l-2.862-3.15v3.15h-1.08v-4.2h1.464l2.868 3.156zm5.94 4.2-.45-.894h-2.514l-.45.894h-1.188l2.166-4.2h1.458l2.172 4.2zm-2.562-1.698h1.71l-.852-1.704zm10.254-2.502c.954 0 1.608.606 1.608 1.542s-.654 1.536-1.608 1.536h-2.22v1.122h-1.08v-4.2zm-.3 2.172c.324 0 .828 0 .828-.63 0-.636-.504-.636-.828-.636h-1.92v1.266zm3.378 1.122h3.24v.906h-4.32v-4.2h1.08zm8.136.906-.45-.894h-2.514l-.45.894h-1.188l2.166-4.2h1.458l2.172 4.2zm-2.562-1.698h1.71l-.852-1.704zm8.814-2.502v.906l-3.192 2.388h3.192v.906h-4.74v-.906l3.186-2.388h-3.186v-.906zm4.92 4.2-.45-.894h-2.514l-.45.894h-1.188l2.166-4.2h1.458l2.172 4.2zm-2.562-1.698h1.71l-.852-1.704z"/><path d="m71.6084944 157.191581v.852h-1.938v1.614h-1.026v-1.614h-1.836v-.852h1.836v-1.614h1.026v1.614zm-45.936 8.36c0-1.392.792-2.154 2.64-2.154 1.674 0 2.514.636 2.622 1.848h-1.098c-.102-.678-.624-.942-1.524-.942-1.098 0-1.56.39-1.56 1.248 0 .864.468 1.26 1.56 1.26.894 0 1.422-.27 1.524-.954h1.098c-.108 1.218-.948 1.86-2.622 1.86-1.848 0-2.64-.768-2.64-2.166zm9.546 2.106-.45-.894h-2.514l-.45.894h-1.188l2.166-4.2h1.458l2.172 4.2zm-2.562-1.698h1.71l-.852-1.704zm10.446-2.502v4.2h-1.08v-2.88l-1.746 2.88h-.78l-1.746-2.88v2.88h-1.08v-4.2h1.458l1.758 2.964 1.758-2.964zm4.86 4.2-.45-.894h-2.514l-.45.894h-1.188l2.166-4.2h1.458l2.172 4.2zm-2.562-1.698h1.71l-.852-1.704zm10.002-2.502c1.086 0 2.04.672 2.04 2.1s-.954 2.1-2.04 2.1h-3.048v-4.2zm-.408 3.294c.816 0 1.368-.174 1.368-1.194s-.552-1.194-1.368-1.194h-1.56v2.388zm7.278-2.436h-3.36v.852h3.36v.78h-3.36v.852h3.36v.858h-4.44v-4.2h4.44zm8.478 1.236c0 1.458-.798 2.166-2.64 2.166-1.848 0-2.64-.702-2.64-2.166v-2.094h1.08v2.094c0 .588.162 1.26 1.56 1.26s1.56-.678 1.56-1.26v-2.094h1.08zm4.782-2.094h1.08v4.2h-1.47l-2.862-3.15v3.15h-1.08v-4.2h1.464l2.868 3.156zm5.94 4.2-.45-.894h-2.514l-.45.894h-1.188l2.166-4.2h1.458l2.172 4.2zm-2.562-1.698h1.71l-.852-1.704zm10.254-2.502c.954 0 1.608.606 1.608 1.542s-.654 1.536-1.608 1.536h-2.22v1.122h-1.08v-4.2zm-.3 2.172c.324 0 .828 0 .828-.63 0-.636-.504-.636-.828-.636h-1.92v1.266zm3.378 1.122h3.24v.906h-4.32v-4.2h1.08zm8.1359996.906-.4499996-.894h-2.514l-.45.894h-1.188l2.166-4.2h1.458l2.1719996 4.2zm-2.5619996-1.698h1.71l-.852-1.704zm8.8139996-2.502v.906l-3.192 2.388h3.192v.906h-4.74v-.906l3.186-2.388h-3.186v-.906zm4.92 4.2-.45-.894h-2.514l-.45.894h-1.188l2.166-4.2h1.458l2.172 4.2zm-2.562-1.698h1.71l-.852-1.704z"/><path d="m151.108494 134.691581v.852h-1.938v1.614h-1.026v-1.614h-1.836v-.852h1.836v-1.614h1.026v1.614zm-29.121 6.266c1.086 0 2.04.672 2.04 2.1s-.954 2.1-2.04 2.1h-3.048v-4.2zm-.408 3.294c.816 0 1.368-.174 1.368-1.194s-.552-1.194-1.368-1.194h-1.56v2.388zm7.278-2.436h-3.36v.852h3.36v.78h-3.36v.852h3.36v.858h-4.44v-4.2h4.44zm.33 1.896h1.08c0 .444.36.648 1.728.648 1.134 0 1.476-.126 1.476-.456 0-.348-.24-.408-1.602-.474-1.83-.084-2.556-.372-2.556-1.314 0-.924.942-1.218 2.514-1.218 1.584 0 2.544.396 2.544 1.434h-1.08c0-.462-.462-.576-1.584-.576-1.062 0-1.314.102-1.314.414 0 .324.252.384 1.476.456 1.656.09 2.682.18 2.682 1.242 0 1.122-1.062 1.35-2.616 1.35-1.722 0-2.748-.294-2.748-1.506zm9.9 1.446-.45-.894h-2.514l-.45.894h-1.188l2.166-4.2h1.458l2.172 4.2zm-2.562-1.698h1.71l-.852-1.704zm4.824.318-2.376-2.82h1.302l1.614 1.914 1.614-1.914h1.302l-2.376 2.82v1.38h-1.08zm9.018-.726c0 1.458-.798 2.166-2.64 2.166-1.848 0-2.64-.702-2.64-2.166v-2.094h1.08v2.094c0 .588.162 1.26 1.56 1.26s1.56-.678 1.56-1.26v-2.094h1.08zm4.782-2.094h1.08v4.2h-1.47l-2.862-3.15v3.15h-1.08v-4.2h1.464l2.868 3.156zm5.94 4.2-.45-.894h-2.514l-.45.894h-1.188l2.166-4.2h1.458l2.172 4.2zm-2.562-1.698h1.71l-.852-1.704zm7.062-2.502c1.086 0 2.04.672 2.04 2.1s-.954 2.1-2.04 2.1h-3.048v-4.2zm-.408 3.294c.816 0 1.368-.174 1.368-1.194s-.552-1.194-1.368-1.194h-1.56v2.388zm5.418.966c-1.848 0-2.64-.768-2.64-2.166 0-1.392.792-2.154 2.64-2.154 1.842 0 2.64.768 2.64 2.154 0 1.392-.798 2.166-2.64 2.166zm0-.906c1.122 0 1.56-.402 1.56-1.26 0-.852-.432-1.248-1.56-1.248s-1.56.39-1.56 1.248c0 .864.438 1.26 1.56 1.26zm7.938-1.812c0 .684-.348 1.188-.912 1.41l.774 1.248h-1.272l-.678-1.122h-1.74v1.122h-1.08v-4.2h3.3c.954 0 1.608.606 1.608 1.542zm-3.828-.636v1.266h1.92c.324 0 .828 0 .828-.63 0-.636-.504-.636-.828-.636z" transform="matrix(0 1 -1 0 287.886075 -9.590913)"/><path d="m206.638494 173.457581c.954 0 1.608.606 1.608 1.542s-.654 1.536-1.608 1.536h-2.22v1.122h-1.08v-4.2zm-.3 2.172c.324 0 .828 0 .828-.63 0-.636-.504-.636-.828-.636h-1.92v1.266zm5.922 2.028-.45-.894h-2.514l-.45.894h-1.188l2.166-4.2h1.458l2.172 4.2zm-2.562-1.698h1.71l-.852-1.704zm3.63.252h1.08c0 .444.36.648 1.728.648 1.134 0 1.476-.126 1.476-.456 0-.348-.24-.408-1.602-.474-1.83-.084-2.556-.372-2.556-1.314 0-.924.942-1.218 2.514-1.218 1.584 0 2.544.396 2.544 1.434h-1.08c0-.462-.462-.576-1.584-.576-1.062 0-1.314.102-1.314.414 0 .324.252.384 1.476.456 1.656.09 2.682.18 2.682 1.242 0 1.122-1.062 1.35-2.616 1.35-1.722 0-2.748-.294-2.748-1.506zm6.834-2.754v4.2h-1.08v-4.2zm1.56 3.294h3.24v.906h-4.32v-4.2h1.08zm4.74 0h3.24v.906h-4.32v-4.2h1.08zm6.036.966c-1.848 0-2.64-.768-2.64-2.166 0-1.392.792-2.154 2.64-2.154 1.842 0 2.64.768 2.64 2.154 0 1.392-.798 2.166-2.64 2.166zm0-.906c1.122 0 1.56-.402 1.56-1.26 0-.852-.432-1.248-1.56-1.248s-1.56.39-1.56 1.248c0 .864.438 1.26 1.56 1.26z"/><path d="m-7.582898 91.5433604-.525-1.043h-2.933l-.525 1.043h-1.386l2.527-4.9h1.701l2.534 4.9zm-2.989-1.981h1.995l-.994-1.988zm4.053-.476c0-1.624.924-2.513 3.08-2.513 1.953 0 2.933.742 3.059 2.156h-1.281c-.119-.791-.728-1.099-1.778-1.099-1.281 0-1.82.455-1.82 1.456 0 1.008.546 1.47 1.82 1.47 1.043 0 1.659-.315 1.778-1.113h1.281c-.126 1.421-1.106 2.17-3.059 2.17-2.156 0-3.08-.896-3.08-2.527zm6.524 0c0-1.624.924-2.513 3.08-2.513 1.953 0 2.933.742 3.059 2.156h-1.281c-.119-.791-.728-1.099-1.778-1.099-1.281 0-1.82.455-1.82 1.456 0 1.008.546 1.47 1.82 1.47 1.043 0 1.659-.315 1.778-1.113h1.281c-.126 1.421-1.106 2.17-3.059 2.17-2.156 0-3.08-.896-3.08-2.527zm11.774-1.442h-3.92v.994h3.92v.91h-3.92v.994h3.92v1.001h-5.18v-4.9h5.18zm.385 2.212h1.26c0 .518.42.756 2.016.756 1.323 0 1.722-.147 1.722-.532 0-.406-.28-.476-1.869-.553-2.135-.098-2.982-.434-2.982-1.533 0-1.078 1.099-1.421 2.933-1.421 1.848 0 2.968.462 2.968 1.673h-1.26c0-.539-.539-.672-1.848-.672-1.239 0-1.533.119-1.533.483 0 .378.294.448 1.722.532 1.932.105 3.129.21 3.129 1.449 0 1.309-1.239 1.575-3.052 1.575-2.009 0-3.206-.343-3.206-1.757zm9.653 1.757c-2.156 0-3.08-.896-3.08-2.527 0-1.624.924-2.513 3.08-2.513 2.149 0 3.08.896 3.08 2.513 0 1.624-.931 2.527-3.08 2.527zm0-1.057c1.309 0 1.82-.469 1.82-1.47 0-.994-.504-1.456-1.82-1.456s-1.82.455-1.82 1.456c0 1.008.511 1.47 1.82 1.47z" transform="matrix(0 1 -1 0 95.065962 83.120758)"/><path d="m241.728494 126.377581c.36.222.594.57.594 1.056 0 .708-.414 1.224-1.368 1.224h-3.84v-4.2h3.696c.954 0 1.248.486 1.248 1.104 0 .294-.12.582-.33.816zm-3.534-1.14v.87h2.232c.288 0 .552 0 .552-.438 0-.432-.264-.432-.558-.432zm2.496 2.586c.288 0 .552 0 .552-.444s-.264-.444-.552-.444h-2.496v.888zm6.168.834-.45-.894h-2.514l-.45.894h-1.188l2.166-4.2h1.458l2.172 4.2zm-2.562-1.698h1.71l-.852-1.704zm6.186-3.522c-.252 0-.33.192-.33.534h-.876c0-.666.264-1.26.942-1.26.684 0 .846.594 1.326.594.258 0 .336-.192.336-.534h.876c0 .666-.27 1.26-.942 1.26-.69 0-.852-.594-1.332-.594zm2.16 1.02h1.08v4.2h-1.47l-2.862-3.15v3.15h-1.08v-4.2h1.464l2.868 3.156zm4.08 4.26c-1.848 0-2.64-.768-2.64-2.166 0-1.392.792-2.154 2.64-2.154 1.842 0 2.64.768 2.64 2.154 0 1.392-.798 2.166-2.64 2.166zm0-.906c1.122 0 1.56-.402 1.56-1.26 0-.852-.432-1.248-1.56-1.248s-1.56.39-1.56 1.248c0 .864.438 1.26 1.56 1.26z"/><path d="m311.315058 152.635122c1.267 0 2.38.784 2.38 2.45s-1.113 2.45-2.38 2.45h-3.556v-4.9zm-.476 3.843c.952 0 1.596-.203 1.596-1.393s-.644-1.393-1.596-1.393h-1.82v2.786zm6.321 1.127c-2.156 0-3.08-.896-3.08-2.527 0-1.624.924-2.513 3.08-2.513 2.149 0 3.08.896 3.08 2.513 0 1.624-.931 2.527-3.08 2.527zm0-1.057c1.309 0 1.82-.469 1.82-1.47 0-.994-.504-1.456-1.82-1.456s-1.82.455-1.82 1.456c0 1.008.511 1.47 1.82 1.47zm9.261-2.114c0 .798-.406 1.386-1.064 1.645l.903 1.456h-1.484l-.791-1.309h-2.03v1.309h-1.26v-4.9h3.85c1.113 0 1.876.707 1.876 1.799zm-4.466-.742v1.477h2.24c.378 0 .966 0 .966-.735 0-.742-.588-.742-.966-.742zm12.383-1.057v4.9h-1.26v-3.36l-2.037 3.36h-.91l-2.037-3.36v3.36h-1.26v-4.9h1.701l2.051 3.458 2.051-3.458zm1.82 0v4.9h-1.26v-4.9zm6.433 0v1.057h-2.38v3.843h-1.26v-3.843h-2.38v-1.057zm3.192 4.97c-2.156 0-3.08-.896-3.08-2.527 0-1.624.924-2.513 3.08-2.513 2.149 0 3.08.896 3.08 2.513 0 1.624-.931 2.527-3.08 2.527zm0-1.057c1.309 0 1.82-.469 1.82-1.47 0-.994-.504-1.456-1.82-1.456s-1.82.455-1.82 1.456c0 1.008.511 1.47 1.82 1.47zm9.261-2.114c0 .798-.406 1.386-1.064 1.645l.903 1.456h-1.484l-.791-1.309h-2.03v1.309h-1.26v-4.9h3.85c1.113 0 1.876.707 1.876 1.799zm-4.466-.742v1.477h2.24c.378 0 .966 0 .966-.735 0-.742-.588-.742-.966-.742zm6.139-1.057v4.9h-1.26v-4.9zm3.5 4.97c-2.156 0-3.08-.896-3.08-2.527 0-1.624.924-2.513 3.08-2.513 2.149 0 3.08.896 3.08 2.513 0 1.624-.931 2.527-3.08 2.527zm0-1.057c1.309 0 1.82-.469 1.82-1.47 0-.994-.504-1.456-1.82-1.456s-1.82.455-1.82 1.456c0 1.008.511 1.47 1.82 1.47z"/><path d="m289.210059 56.7575814c1.267 0 2.38.784 2.38 2.45s-1.113 2.45-2.38 2.45h-3.556v-4.9zm-.476 3.843c.952 0 1.596-.203 1.596-1.393s-.644-1.393-1.596-1.393h-1.82v2.786zm6.321 1.127c-2.156 0-3.08-.896-3.08-2.527 0-1.624.924-2.513 3.08-2.513 2.149 0 3.08.896 3.08 2.513 0 1.624-.931 2.527-3.08 2.527zm0-1.057c1.309 0 1.82-.469 1.82-1.47 0-.994-.504-1.456-1.82-1.456s-1.82.455-1.82 1.456c0 1.008.511 1.47 1.82 1.47zm9.261-2.114c0 .798-.406 1.386-1.064 1.645l.903 1.456h-1.484l-.791-1.309h-2.03v1.309h-1.26v-4.9h3.85c1.113 0 1.876.707 1.876 1.799zm-4.466-.742v1.477h2.24c.378 0 .966 0 .966-.735 0-.742-.588-.742-.966-.742zm12.383-1.057v4.9h-1.26v-3.36l-2.037 3.36h-.91l-2.037-3.36v3.36h-1.26v-4.9h1.701l2.051 3.458 2.051-3.458zm1.82 0v4.9h-1.26v-4.9zm6.433 0v1.057h-2.38v3.843h-1.26v-3.843h-2.38v-1.057zm3.192 4.97c-2.156 0-3.08-.896-3.08-2.527 0-1.624.924-2.513 3.08-2.513 2.149 0 3.08.896 3.08 2.513 0 1.624-.931 2.527-3.08 2.527zm0-1.057c1.309 0 1.82-.469 1.82-1.47 0-.994-.504-1.456-1.82-1.456s-1.82.455-1.82 1.456c0 1.008.511 1.47 1.82 1.47zm9.261-2.114c0 .798-.406 1.386-1.064 1.645l.903 1.456h-1.484l-.791-1.309h-2.03v1.309h-1.26v-4.9h3.85c1.113 0 1.876.707 1.876 1.799zm-4.466-.742v1.477h2.24c.378 0 .966 0 .966-.735 0-.742-.588-.742-.966-.742zm6.139-1.057v4.9h-1.26v-4.9zm3.5 4.97c-2.156 0-3.08-.896-3.08-2.527 0-1.624.924-2.513 3.08-2.513 2.149 0 3.08.896 3.08 2.513 0 1.624-.931 2.527-3.08 2.527zm0-1.057c1.309 0 1.82-.469 1.82-1.47 0-.994-.504-1.456-1.82-1.456s-1.82.455-1.82 1.456c0 1.008.511 1.47 1.82 1.47zm-48.6605 6.087v4.9h-1.26v-3.36l-2.037 3.36h-.91l-2.037-3.36v3.36h-1.26v-4.9h1.701l2.051 3.458 2.051-3.458zm5.67 4.9-.525-1.043h-2.933l-.525 1.043h-1.386l2.527-4.9h1.701l2.534 4.9zm-2.989-1.981h1.995l-.994-1.988zm9.317-2.919v1.057h-2.38v3.843h-1.26v-3.843h-2.38v-1.057zm6.139 1.799c0 .798-.406 1.386-1.064 1.645l.903 1.456h-1.484l-.791-1.309h-2.03v1.309h-1.26v-4.9h3.85c1.113 0 1.876.707 1.876 1.799zm-4.466-.742v1.477h2.24c.378 0 .966 0 .966-.735 0-.742-.588-.742-.966-.742zm6.139-1.057v4.9h-1.26v-4.9zm8.064 0v4.9h-1.26v-3.36l-2.037 3.36h-.91l-2.037-3.36v3.36h-1.26v-4.9h1.701l2.051 3.458 2.051-3.458zm3.5 4.97c-2.156 0-3.08-.896-3.08-2.527 0-1.624.924-2.513 3.08-2.513 2.149 0 3.08.896 3.08 2.513 0 1.624-.931 2.527-3.08 2.527zm0-1.057c1.309 0 1.82-.469 1.82-1.47 0-.994-.504-1.456-1.82-1.456s-1.82.455-1.82 1.456c0 1.008.511 1.47 1.82 1.47zm8.589-3.913h1.26v4.9h-1.715l-3.339-3.675v3.675h-1.26v-4.9h1.708l3.346 3.682zm3.08 0v4.9h-1.26v-4.9zm5.67 4.9-.525-1.043h-2.933l-.525 1.043h-1.386l2.527-4.9h1.701l2.534 4.9zm-2.989-1.981h1.995l-.994-1.988zm5.943.924h3.78v1.057h-5.04v-4.9h1.26z"/><path d="m212.460324 3.11223796c1.113 0 1.876.707 1.876 1.799s-.763 1.792-1.876 1.792h-2.59v1.309h-1.26v-4.9zm-.35 2.534c.378 0 .966 0 .966-.735 0-.742-.588-.742-.966-.742h-2.24v1.477zm6.909 2.366-.525-1.043h-2.933l-.525 1.043h-1.386l2.527-4.9h1.701l2.534 4.9zm-2.989-1.981h1.995l-.994-1.988zm10.409-1.12c0 .798-.406 1.386-1.064 1.645l.903 1.456h-1.484l-.791-1.309h-2.03v1.309h-1.26v-4.9h3.85c1.113 0 1.876.707 1.876 1.799zm-4.466-.742v1.477h2.24c.378 0 .966 0 .966-.735 0-.742-.588-.742-.966-.742zm10.605.742c0 .798-.406 1.386-1.064 1.645l.903 1.456h-1.484l-.791-1.309h-2.03v1.309h-1.26v-4.9h3.85c1.113 0 1.876.707 1.876 1.799zm-4.466-.742v1.477h2.24c.378 0 .966 0 .966-.735 0-.742-.588-.742-.966-.742zm6.139-1.057v4.9h-1.26v-4.9zm1.82 3.843h3.78v1.057h-5.04v-4.9h1.26zm5.53 0h3.78v1.057h-5.04v-4.9h1.26zm9.492 1.057-.525-1.043h-2.933l-.525 1.043h-1.386l2.527-4.9h1.701l2.534 4.9zm-2.989-1.981h1.995l-.994-1.988z"/><path d="m167.713494 3.11223796c1.267 0 2.38.784 2.38 2.45s-1.113 2.45-2.38 2.45h-3.556v-4.9zm-.476 3.843c.952 0 1.596-.203 1.596-1.393s-.644-1.393-1.596-1.393h-1.82v2.786zm8.491-2.842h-3.92v.994h3.92v.91h-3.92v.994h3.92v1.001h-5.18v-4.9h5.18zm.343 1.442c0-1.624.924-2.513 3.08-2.513 1.953 0 2.933.742 3.059 2.156h-1.281c-.119-.791-.728-1.099-1.778-1.099-1.281 0-1.82.455-1.82 1.456 0 1.008.546 1.47 1.82 1.47 1.043 0 1.659-.315 1.778-1.113h1.281c-.126 1.421-1.106 2.17-3.059 2.17-2.156 0-3.08-.896-3.08-2.527zm13.258-2.443-2.968 2.177 2.968 2.723h-1.743l-2.156-2.037-1.505 1.099v.938h-1.26v-4.9h1.26v2.541l3.493-2.541z"/></g></g></svg>