<svg height="150" viewBox="0 0 393 150" width="393" xmlns="http://www.w3.org/2000/svg"><g fill="none" fill-rule="evenodd"><path d="m88.4198251 144.205128 234.0524779.259829" stroke="#d0021b" stroke-dasharray="25.999999" stroke-linecap="round" stroke-linejoin="round" stroke-width="4"/><g fill="#161d3a" fill-rule="nonzero" stroke="#161d3a" stroke-width="1.1" transform="translate(330 75)"><path d="m11.0804034 6.78632479c3.8340091 0 7.4329851-1.46546634 10.0495529-4.05632798 2.6170711 2.59086154 6.2160471 4.05632798 10.0495529 4.05632798 3.8340092 0 7.4329852-1.46546634 10.049553-4.05632798 2.617071 2.59086154 6.216047 4.05632798 10.0495529 4.05632798 3.8340091 0 7.4329851-1.46546634 10.0495529-4.05632798.8072658-.87211047 1.487274-1.33310552.8072658-2.07391551-.4231254-.4609584-1.2229774-.46128943-1.6145315 0-2.2607468 2.66821474-5.6297226 4.19829939-9.2422872 4.19829939-3.6120613 0-6.9810371-1.53008465-9.2422872-4.19829939-.3915541-.46128943-1.2229774-.46128943-1.6145315 0-2.2607468 2.66821474-5.6297225 4.19829939-9.2422872 4.19829939-3.6120613 0-6.981037-1.53008465-9.2422872-4.19829939-.391554-.46128943-1.2229774-.46128943-1.6145314 0-2.2607469 2.66821474-5.6297226 4.19829939-9.2422872 4.19829939-3.61206137 0-6.98103711-1.53008465-9.24228722-4.19829939-.35531776-.4188395-1.00253948-.48723099-1.44844814-.15564979-.44590866.3320529-.5198912.9395587-.16608334 1.35745483 2.6553206 3.13186249 6.61213076 4.92843845 10.8568187 4.92843845z"/><path d="m11.0804034 21.0769231c3.8340091 0 7.4329851-1.4654664 10.0495529-4.056328 2.6170711 2.5908615 6.2160471 4.056328 10.0495529 4.056328 3.8340092 0 7.4329852-1.4654664 10.049553-4.056328 2.617071 2.5908615 6.216047 4.056328 10.0495529 4.056328 3.8340091 0 7.4329851-1.4654664 10.0495529-4.056328.8072658-.8721105 1.487274-1.3331055.8072658-2.0739155-.4231254-.4609584-1.2229774-.4612894-1.6145315 0-2.2607468 2.6682147-5.6297226 4.1982994-9.2422872 4.1982994-3.6120613 0-6.9810371-1.5300847-9.2422872-4.1982994-.3915541-.4612894-1.2229774-.4612894-1.6145315 0-2.2607468 2.6682147-5.6297225 4.1982994-9.2422872 4.1982994-3.6120613 0-6.981037-1.5300847-9.2422872-4.1982994-.391554-.4612894-1.2229774-.4612894-1.6145314 0-2.2607469 2.6682147-5.6297226 4.1982994-9.2422872 4.1982994-3.61206137 0-6.98103711-1.5300847-9.24228722-4.1982994-.35531776-.4188395-1.00253948-.487231-1.44844814-.1556498-.44590866.3320529-.5198912.9395587-.16608334 1.3574548 2.6553206 3.1318625 6.61213076 4.9284385 10.8568187 4.9284385z"/></g><g transform="translate(175.539359)"><ellipse cx="30.556851" cy="31.82906" fill="#f8d810" rx="12.35277" ry="12.34188"/><path d="m32.4259708 9.12977394c0 .88557246-.718644 1.60358296-1.6049978 1.60358296-.8863537 0-1.6049977-.7180105-1.6049977-1.60358296v-7.52619101c0-.88557242.718644-1.60358293 1.6049977-1.60358293.8863538 0 1.6049978.71801051 1.6049978 1.60358293zm13.8062725-5.00414971c.7680166.44317773 1.0305528 1.42349303.5877677 2.19083248l-3.7664158 6.51768759c-.2978023.5144307-.8369813.8017915-1.391834.8017915-.2719405 0-.5477995-.0689041-.8009314-.2145419-.7680165-.4431776-1.0305527-1.4234931-.5877677-2.1908325l3.7664157-6.51768762c.442785-.76733945 1.4208306-1.0312103 2.1927655-.58724955zm3.3690847 17.43974737c-.5548527 0-1.0940317-.2873608-1.391834-.8017915-.4427851-.7673394-.1802488-1.7476547.5877676-2.1908324l6.5234383-3.7630955c.766449-.4431778 1.7476292-.1800899 2.1927654.5872495.442785.7673395.1802488 1.7476548-.5877677 2.1908325l-6.5234382 3.7630955c-.2523482.1456379-.5289909.2145419-.8009314.2145419zm12.0414018 9.2284318c0 .8855724-.718644 1.6035829-1.6049978 1.6035829h-7.5328314c-.8863538 0-1.6049978-.7180105-1.6049978-1.6035829s.718644-1.6035829 1.6049978-1.6035829h7.5328314c.8863538 0 1.6049978.7180105 1.6049978 1.6035829zm-12.845468 12.2210559c-.7680166-.4431777-1.0305529-1.4234932-.5877677-2.1908324.4443523-.7673395 1.4208306-1.0312103 2.1927655-.5872496l6.5234382 3.7630955c.7680165.4431776 1.0305527 1.423493.5877677 2.1908325-.2978024.5144307-.8369813.8017915-1.391834.8017915-.2719406 0-.5477996-.0689041-.8009315-.214542zm-4.757784 13.8606566-3.7664157-6.5176876c-.442785-.7673394-.1802488-1.7476547.5877677-2.1908325.766449-.4439607 1.748413-.1793068 2.1927654.5872496l3.7664158 6.5176876c.442785.7673394.1802487 1.7476548-.5877677 2.1908325-.2523482.1456379-.5289909.2145419-.8009315.2145419-.5548527 0-1.0940316-.2873608-1.391834-.8017915zm-14.8235025-4.417683c0-.8855724.718644-1.6035829 1.6049977-1.6035829.8863538 0 1.6049978.7180105 1.6049978 1.6035829v7.526191c0 .8855724-.718644 1.6035829-1.6049978 1.6035829-.8863537 0-1.6049977-.7180105-1.6049977-1.6035829zm-13.8054886 5.0049327c-.7680167-.4431777-1.0305529-1.423493-.5877677-2.1908324l3.7664157-6.5176876c.4435686-.7665565 1.4223978-1.0312103 2.1927655-.5872496.7680164.4431776 1.0305527 1.423493.5877677 2.1908325l-3.7664158 6.5176876c-.2978023.5144307-.8369813.8017915-1.391834.8017915-.2719405 0-.5477995-.0689041-.8009314-.214542zm-9.88938822-10.470269c-.55485287 0-1.09403181-.2873608-1.39183402-.8017915-.44278502-.7673394-.18024879-1.7476547.58776769-2.1908324l6.52343825-3.7630956c.7672327-.4439607 1.748413-.1800899 2.1927654.5872496.442785.7673394.1802488 1.7476547-.5877677 2.1908325l-6.52343817 3.7630955c-.25234819.1456379-.5289909.2145419-.80093145.2145419zm5.22172852-16.1986932c0 .8855724-.718644 1.6035829-1.60499779 1.6035829h-7.53283143c-.88635376 0-1.60499778-.7180105-1.60499778-1.6035829s.71864402-1.6035829 1.60499778-1.6035829h7.53283143c.88635379 0 1.60499779.7180105 1.60499779 1.6035829zm2.1026411-12.2210559c.7680165.4431777 1.0305529 1.4234932.5877677 2.1908325-.2978023.5144307-.8369813.8017914-1.391834.8017914-.2719405 0-.5477995-.068904-.8009314-.2145419l-6.52343825-3.7630955c-.76801648-.4431775-1.03055271-1.423493-.58776769-2.1908325.44278503-.7673394 1.42161411-1.0304272 2.19276547-.5872495zm5.7436664-5.738603-3.7664157-6.51768763c-.442785-.76733945-.1802488-1.74765475.5877677-2.19083248.7672328-.44396075 1.7476293-.1800899 2.1927655.58724955l3.7664157 6.51768756c.442785.7673395.1802488 1.7476548-.5877677 2.1908325-.2523482.1456379-.5289909.2145419-.8009314.2145419-.5548527 0-1.0940317-.2873607-1.3918341-.8017914zm25.6870177 17.9596589c0 7.4126561-6.0359829 13.4433181-13.4551792 13.4433181-7.4184125 0-13.4543954-6.030662-13.4543954-13.4433181 0-7.412656 6.0359829-13.443318 13.4543954-13.443318 7.4191963 0 13.4551792 6.030662 13.4551792 13.443318zm-13.4551792 10.2361522c5.64884 0 10.2451837-4.5922919 10.2451837-10.2361522s-4.5963437-10.2361522-10.2451837-10.2361522c-5.6488399 0-10.2443999 4.5922919-10.2443999 10.2361522s4.5955602 10.2361522 10.2443999 10.2361522z" fill="#161d3a" fill-rule="nonzero"/></g><path d="m149.176372 70.3928719-18.750756-53.5500475c-.331872-.9947377-1.327487-1.6578962-2.323103-1.6578962-.995615 0-1.99123.6631585-2.323102 1.6578962l-6.4715 18.7342272-2.654975-2.652634v-20.0605441c0-1.3263169-1.161551-2.4868443-2.489038-2.4868443h-14.6023591c-1.3274872 0-2.4890385 1.1605274-2.4890385 2.4868443v2.3210547l-13.1089359-13.7605385c-.4978077-.49736886-.9956154-.8289481-1.659359-.8289481s-1.3274872.33157924-1.659359.8289481l-34.182795 33.4895034c-3.4846539-9.1184292-12.1133206-15.5842244-22.4013463-15.5842244-13.2748718 0-24.0607052 10.7763254-24.0607052 24.039495 0 10.6105358 6.96930772 19.5631753 16.5935898 22.7131781v16.578962c0 1.326317 1.1615513 2.4868443 2.4890385 2.4868443h9.9561539c1.3274872 0 2.4890385-1.1605273 2.4890385-2.4868443v-16.578962c3.3187179-1.1605274 6.4715-2.9842132 8.9605385-5.3052679v21.8842299c0 1.326317 1.1615512 2.4868443 2.4890384 2.4868443h37.3355771 15.9298462 19.5804361c1.327487 0 2.489038-1.1605273 2.489038-2.4868443v-8.9526395h3.318718v8.9526395c0 1.326317 1.161552 2.4868443 2.489039 2.4868443h8.628667c1.327487 0 2.489038-1.1605273 2.489038-2.4868443v-8.9526395h11.781449c.829679 0 1.493423-.3315792 1.991231-.9947377.331871-.6631585.497807-1.4921066.165935-2.3210547zm-122.6266283 9.7815876h-4.9780769v-13.09738c.8296795 0 1.6593589.1657896 2.4890384.1657896s1.659359 0 2.4890385-.1657896zm4.8121411-19.231596-4.8121411 1.326317c-.8296795.1657896-1.659359.1657896-2.4890385.1657896s-1.6593589 0-2.4890384-.1657896c-1.659359-.1657896-3.318718-.6631585-4.8121411-1.326317-6.96930771-2.8184235-11.78144875-9.7815876-11.78144875-17.5736998 0-10.6105357 8.62866665-19.0658063 19.08262825-19.0658063 8.9605385 0 16.5935899 6.1342159 18.5848206 14.5894866.3318718 1.4921066.4978077 2.9842131.4978077 4.6421094 0 .6631584 0 1.1605273-.1659359 1.8236858-.1659359 2.6526339-.9956154 5.3052678-2.3231025 7.4605329-.9956154 1.8236858-2.3231026 3.481582-3.8165257 4.807899-1.659359 1.326317-3.4846539 2.4868443-5.4758846 3.3157924zm51.2741925 19.231596v-21.0552818h11.1177052v21.0552818zm30.8640767 0h-14.6023587v-23.5421261c0-.1657896 0-.4973689-.1659359-.6631585 0-1.326317-1.1615513-2.3210547-2.4890385-2.3210547h-15.9298462c-1.3274872 0-2.4890385 1.1605274-2.4890385 2.4868443 0 .1657896-.1659359.4973689-.1659359.6631585v23.5421261h-32.3575001v-25.3658119c0-.1657896 0-.3315793 0-.4973689 1.8252949-3.3157924 2.8209103-7.1289537 2.8209103-11.2736942 0-.9947377 0-1.9894754-.1659359-2.8184235l34.3487309-33.82108266 15.5979744 15.42582156c.6637436.6631585 1.8252949.9947377 2.6549741.4973689.995616-.3315793 1.493423-1.326317 1.493423-2.3210547v-5.1468651h9.790218v18.5684375c0 .6631585.165936 1.326317.663744 1.6578962l5.144013 5.1394783 3.816525 3.8131612 7.964924 8.1236915h-10.785834-2.654974c-1.327487 0-2.489039 1.1605273-2.489039 2.4868443v12.2684319 1.4921066 4.807899zm16.759526 0h-3.816526v-6.4657952h3.816526zm4.812141-11.2736942h-4.812141-3.816526-4.812141-3.318718v-11.4394838h16.759526c.995615 0 1.825295-.6631585 2.323103-1.4921066.331871-.8289481.165936-1.9894754-.497808-2.6526339l-13.606744-13.9263282 4.978077-14.423697 5.973693 17.2421206.829679 2.4868443 8.296795 24.039495h-8.296795zm-64.3831284-18.2368583c1.4934231 0 2.4890385.9947378 2.4890385 2.4868444v14.0921177c0 1.326317-1.1615513 2.4868443-2.4890385 2.4868443h-14.1045513c-1.3274872 0-2.4890385-1.1605273-2.4890385-2.4868443v-14.0921177c0-1.326317 1.1615513-2.4868444 2.4890385-2.4868444zm-2.3231026 14.0921178v-9.2842188h-9.2924103v9.2842188z" fill="#161d3a" fill-rule="nonzero" stroke="#fff" stroke-width="1.56" transform="translate(0 37.675214)"/><ellipse cx="24.055394" cy="81.196581" fill="#07b68f" rx="20.154519" ry="20.136752"/><g transform="matrix(-1 0 0 1 376.692007 45.470085)"><g transform="translate(.390154 .80879)"><path d="m80.8118265 4.57537405 5.4201363 1.96017827 1.6452444 6.69129828v8.4499336l-2.2984628 12.3315194-1.2342275 3.196332-4.6833257-3.196332-6.4950147-3.03848-8.1532918-2.9746154-6.7870434-1.7879045 3.4054582-7.882573 5.5299293-6.9262992 4.9386444-4.86287918 5.2600473-1.96017827z" fill="#f8d810"/><path d="m85.5787444 6.53555232 10.4496041 6.69129828 5.9611775 7.945156 4.791825 9.5229834v11.8533555l-1.289657 2.6166324-3.502168-2.6166324-9.1512294-4.2183672-8.4101876-1.1253427 2.1368943-10.9973319v-9.8444501l-.9862589-6.49659164z" fill="#d0021b"/><path d="m74.8942733 2.95621842-13.2629738-1.28354557-15.6034985 4.03068982-8.6646454 7.52348793v3.136003l9.8963199 3.4929795 10.9663658 5.994432 3.4054582-9.4874115 12.1123385-9.82730128z" fill="#4a90e2"/><path d="m106.125804 62.5845977c-.657506-.3284631-14.9582593-5.5838736-43.2310136-6.569263l9.6982122-23.97781c5.7531767 2.4634736 9.0407063 4.5984841 9.6982122 5.5838735 0 .1642316 0 .3284632.1643765.4926948v.1642315c0 .1642316.1643765.1642316.1643765.3284632 0 0 0 .1642316.1643765.1642316.1643764.1642315.3287529.1642315.4931294.3284631.1643765 0 .328753.1642316.4931294.1642316h.1643765.1643765s.1643765 0 .1643765-.1642316c0 0 .1643764 0 .1643764-.1642316 0 0 .1643765-.1642315.1643765-.1642315s.1643765 0 .1643765-.1642316c.9862589-.1642316 4.6025414.3284631 9.8625887 2.4634736s8.2188243 4.270021 8.7119533 5.0911789c0 .6569263.328753 1.3138526.986259 1.6423157.164376 0 .493129.1642316.657506.1642316.657506 0 1.315012-.3284632 1.479388-.9853895 6.246306-15.6019996-3.945035-34.4886308-23.0127068-42.86444118l.6575059-1.80654733c.3287529-.82115788 0-1.80654733-.9862589-2.13501048-.8218824-.32846315-1.8081412 0-2.1368942.98538945l-.6575059 1.80654733c-9.2050828-3.28463151-18.7389185-3.94155781-27.2864954-1.47808418-9.2050828 2.62770521-15.9445184 8.37581035-19.0676715 16.25892599-.328753.8211579 0 1.8065473.9862589 2.1350105.6575059.3284631 1.3150118 0 1.8081412-.4926948.9862589-.1642315 4.6025414.3284632 9.8625887 2.4634737s8.2188239 4.2700209 8.7119534 5.0911788c0 .1642316 0 .3284632.1643765.4926947v.1642316c0 .1642316.1643764.1642316.1643764.3284632 0 0 0 .1642316.1643765.1642316.1643765.1642315.328753.1642315.4931294.3284631.1643765 0 .328753.1642316.4931295.1642316h.1643765c.1643764 0 .3287529 0 .4931294-.1642316h.1643765c.1643765 0 .3287529-.1642316.4931294-.3284631 1.1506354-.1642316 4.9312944.6569263 10.8488476 2.7919367l-10.1913417 25.1274311c-1.8081412 0-3.6162825 0-5.4244238 0-34.1903075 0-51.44983769 6.4050314-52.27172008 6.7334946-.82188239.3284631-1.31501183 1.3138526-.98625887 2.1350105.32875296.6569263.82188239.9853894 1.47938831.9853894.16437647 0 .32875295 0 .65750591-.1642315.16437648 0 17.58828323-6.4050315 50.95670833-6.4050315h4.1094119l-3.9450355 9.5254314v.1642316c-1.3150118-.3284632-2.7944001-.6569263-4.4381649-.6569263s-3.2875295.1642315-4.7669178.6569263c-.8218824.3284631-1.3150119 1.149621-1.1506354 1.9707789.328753.8211578 1.1506354 1.3138526 1.9725177 1.149621 1.1506354-.3284632 2.4656472-.4926947 3.780659-.4926947 3.2875296 0 5.7531768 1.149621 6.5750592 2.1350105.3287529.3284631.8218824.6569263 1.3150118.6569263.328753 0 .8218824-.1642316.9862589-.3284632.6575059-.6569263.8218824-1.6423158.1643765-2.2992421-.1643765-.1642315-.4931295-.4926947-.657506-.6569263.657506-.1642315 1.4793883-.3284631 2.3012707-.3284631 1.9725178 0 3.2875296.4926947 4.109412.9853894.6575059.4926948 1.8081413.3284632 2.3012707-.3284631s.3287529-1.8065473-.328753-2.2992421c-1.4793883-.9853894-3.6162825-1.6423157-5.9175532-1.6423157-.8218824 0-1.4793883.1642316-2.3012707.1642316l3.4519061-8.3758104c29.2590131.8211579 44.0528958 6.2407999 44.0528958 6.2407999.821883.3284631 1.808142-.1642316 2.136895-.9853895s0-1.6423157-.821883-1.9707789zm-33.8615544-34.3243993c-4.1094119-1.6423157-8.7119533-3.2846315-12.1638593-3.6130946 5.7531767-12.6458314 15.122636-20.85741013 21.0401892-18.55816807 5.9175532 2.46347363 6.7394356 14.78084177 2.1368942 27.91936787-2.4656472-1.9707789-6.9038121-4.1057894-11.0132241-5.7481052zm32.5465424 14.2881471c-2.30127-1.8065473-5.9175529-3.4488631-8.5475765-4.5984841-2.9587766-1.149621-5.9175532-2.1350105-8.2188239-2.4634736-.328753 0-.9862589-.1642316-1.4793883-.1642316 3.451906-10.0181261 3.9450354-19.2150944 1.8081412-25.45589424 12.4926125 7.88311564 19.3964245 21.02164164 16.4376475 32.68208354zm-56.5455082-23.97781c-2.9587766-1.1496211-5.9175532-2.1350105-8.2188239-2.4634737-.328753 0-.6575059-.1642315-1.1506354-.1642315 3.1231531-5.419642 8.5475769-9.52543142 15.6157655-11.49621033 5.9175532-1.80654733 12.4926123-1.97077891 19.0676715-.49269473-5.9175532 2.79193679-11.9994829 9.85389456-16.4376479 19.54355746-.4931294-.3284631-.9862588-.6569263-1.1506353-.8211578-1.9725177-1.4780842-4.7669179-2.9561684-7.7256945-4.1057894z" fill="#000" fill-rule="nonzero"/></g><g fill="#161d3a" fill-rule="nonzero"><ellipse cx="32.546543" cy="71.276504" rx="1.150635" ry="1.149621"/><ellipse cx="29.752143" cy="74.561135" rx="1.150635" ry="1.149621"/><ellipse cx="23.998966" cy="74.396904" rx="1.150635" ry="1.149621"/><ellipse cx="15.451389" cy="76.696146" rx="1.150635" ry="1.149621"/><ellipse cx="34.025931" cy="75.05383" rx="1.150635" ry="1.149621"/><ellipse cx="74.133792" cy="83.758104" rx="1.150635" ry="1.149621"/><ellipse cx="78.90071" cy="81.623093" rx="1.150635" ry="1.149621"/><ellipse cx="84.818263" cy="84.907725" rx="1.150635" ry="1.149621"/><ellipse cx="80.051345" cy="84.907725" rx="1.150635" ry="1.149621"/><ellipse cx="72.490027" cy="79.980777" rx="1.150635" ry="1.149621"/></g></g><circle cx="322" cy="144" fill="#d0021b" r="6"/><circle cx="88" cy="144" fill="#d0021b" r="6"/><path d="m81.2954958 42.2644219 40.2544892 34.9925237" stroke="#161d3a" stroke-linecap="round" stroke-linejoin="round" stroke-width="3.12" transform="matrix(.99939083 .0348995 -.0348995 .99939083 2.147402 -3.503198)"/><path d="m122.383573 77.2607474 5.879109-17.0292979 16.293151 47.1293625h-27.032104v-13.0112023h17.639556c1.005291-.331774 1.530292-.8237375 1.575003-1.4758906.067066-.9782296-.385868-1.2922919-.385868-1.2922919s-4.656283-4.7735599-13.968847-14.3206798z" fill="#07b68f"/><path d="m58.2895631 92.3731168h10.8498645v10.8386472h-10.8498645z" fill="#4a90e2"/><path d="m81.8452181 96.0122422h12.7077985v22.6467198h-12.7077985z" fill="#f8d810"/><path d="m101.221706 51.9184691h11.388577v16.1104828l-11.388577-10.5937224z" fill="#d0021b"/></g></svg>