<svg height="110" viewBox="0 0 317 110" width="317" xmlns="http://www.w3.org/2000/svg"><g fill="none" fill-rule="evenodd" transform="translate(0 11)"><g transform="translate(208)"><path d="m.70785368 42.6894579.88442504-2.3126637 2.88650552-1.2474558h7.95948536 13.4420353l1.9374221 1.2474558 1.4961587 2.6222918v21.5811547l-1.4961587 1.4508311-1.9374221 1.6311896h-3.9743254l-1.1573314 24.6925075v.8835996h-11.39577482l-1.59711739-25.5761071-3.27697165-.3642542-2.88650552-1.1141538-.88442504-1.6036127z"/><path d="m35.4536164 42.6894579.884425-2.3126637 2.8865056-1.2474558h7.9594854 13.4420352l1.9374221 1.2474558 1.4961587 2.6222918v21.5811547l-1.4961587 1.4508311-1.9374221 1.6311896h-3.9743254l-1.1573314 24.6925075v.8835996h-11.3957748l-1.5971174-25.5761071-3.2769716-.3642542-2.8865056-1.1141538-.884425-1.6036127z"/><path d="m15.0847458 19.9646018c-5.29727333 0-9.6112877 4.1857475-9.6112877 9.331545 0 4.0201542 2.63463633 7.4556122 6.3114995 8.7659968h-6.57338745c-2.87362647 0-5.21157015 2.2590256-5.21157015 5.0642269v20.2312008c0 2.8052012 2.33794536 5.0899336 5.21157015 5.0899336h1.93797081l1.23087335 24.7555863c.01419328.4442295.38525912.7969089.83804143.7969089h11.73258006c.4527823 0 .8238481-.3526794.8380414-.7969089l1.2308734-24.7555863h1.9379708c2.8736248 0 5.2115701-2.2847324 5.2115701-5.0899336v-20.2312008c0-2.8052013-2.3379437-5.0642269-5.2115701-5.0642269h-6.5733875c3.6768624-1.3103846 6.3114995-4.7458426 6.3114995-8.7659968 0-5.1457975-4.3140152-9.331545-9.6112876-9.331545zm0 1.645231c4.3867119 0 7.9352048 3.4250421 7.9352048 7.686314 0 4.2612718-3.5484929 7.7120206-7.9352048 7.7120206-4.386712 0-7.93520484-3.4507488-7.93520484-7.7120206 0-4.2612719 3.54849284-7.686314 7.93520484-7.686314zm-9.87317565 18.0975418h19.74635125c1.9834052 0 3.5354873 1.5060528 3.5354873 3.4189959v20.2312008c0 1.9129924-1.5520804 3.4447025-3.5354873 3.4447025h-1.8594045l.4975871-9.7942662c.0200619-.453291-.3371726-.8371187-.7988925-.8583634-.4617198-.0212447-.8539662.3280977-.8771903.7812432l-1.7808381 35.4238815h-10.1088747l-1.78083806-35.4238815c-.00667178-.2228747-.10521817-.433546-.27307353-.5837735s-.39064213-.2271435-.61734549-.2131353c-.22241422.013239-.43030275.1128692-.57772712.2768747s-.22224803.3788847-.20793672.5971543l.4975871 9.7942662h-1.85940443c-1.9834069 0-3.53548729-1.5317101-3.53548729-3.4447025v-20.2312008c0-1.9129431 1.55208206-3.4189959 3.53548729-3.4189959z" fill="#161d3a" fill-rule="nonzero" stroke="#161d3a" stroke-width="1.749"/><path d="m49.8305085 19.9646018c-5.2972733 0-9.6112877 4.1857475-9.6112877 9.331545 0 4.0201542 2.6346363 7.4556122 6.3114995 8.7659968h-6.5733874c-2.8736265 0-5.2115702 2.2590256-5.2115702 5.0642269v20.2312008c0 2.8052012 2.3379454 5.0899336 5.2115702 5.0899336h1.9379708l1.2308733 24.7555863c.0141933.4442295.3852591.7969089.8380415.7969089h11.73258c.4527823 0 .8238482-.3526794.8380414-.7969089l1.2308734-24.7555863h1.9379708c2.8736248 0 5.2115701-2.2847324 5.2115701-5.0899336v-20.2312008c0-2.8052013-2.3379436-5.0642269-5.2115701-5.0642269h-6.5733875c3.6768624-1.3103846 6.3114995-4.7458426 6.3114995-8.7659968 0-5.1457975-4.3140152-9.331545-9.6112876-9.331545zm0 1.645231c4.3867119 0 7.9352048 3.4250421 7.9352048 7.686314 0 4.2612718-3.5484929 7.7120206-7.9352048 7.7120206-4.386712 0-7.9352048-3.4507488-7.9352048-7.7120206 0-4.2612719 3.5484928-7.686314 7.9352048-7.686314zm-9.8731756 18.0975418h19.7463512c1.9834052 0 3.5354873 1.5060528 3.5354873 3.4189959v20.2312008c0 1.9129924-1.5520804 3.4447025-3.5354873 3.4447025h-1.8594044l.4975871-9.7942662c.0200618-.453291-.3371727-.8371187-.7988926-.8583634-.4617198-.0212447-.8539662.3280977-.8771903.7812432l-1.780838 35.4238815h-10.1088748l-1.780838-35.4238815c-.0066718-.2228747-.1052182-.433546-.2730736-.5837735-.1678553-.1502275-.3906421-.2271435-.6173455-.2131353-.2224142.013239-.4303027.1128692-.5777271.2768747s-.222248.3788847-.2079367.5971543l.4975871 9.7942662h-1.8594044c-1.9834069 0-3.5354873-1.5317101-3.5354873-3.4447025v-20.2312008c0-1.9129431 1.552082-3.4189959 3.5354873-3.4189959z" fill="#161d3a" fill-rule="nonzero" stroke="#161d3a" stroke-width="1.749"/><path d="m70.1993791 42.6894579.884425-2.3126637 2.8865056-1.2474558h7.9594854 13.4420352l1.9374221 1.2474558 1.4961587 2.6222918v21.5811547l-1.4961587 1.4508311-1.9374221 1.6311896h-3.9743254l-1.1573314 24.6925075v.8835996h-11.3957748l-1.5971174-25.5761071-3.2769716-.3642542-2.8865056-1.1141538-.884425-1.6036127z"/><g stroke="#161d3a"><path d="m84.5762712 19.9646018c-5.2972733 0-9.6112877 4.1857475-9.6112877 9.331545 0 4.0201542 2.6346363 7.4556122 6.3114996 8.7659968h-6.5733875c-2.8736265 0-5.2115702 2.2590256-5.2115702 5.0642269v20.2312008c0 2.8052012 2.3379454 5.0899336 5.2115702 5.0899336h1.9379708l1.2308733 24.7555863c.0141933.4442295.3852592.7969089.8380415.7969089h11.73258c.4527823 0 .8238482-.3526794.8380414-.7969089l1.2308734-24.7555863h1.9379708c2.8736248 0 5.2115701-2.2847324 5.2115701-5.0899336v-20.2312008c0-2.8052013-2.3379436-5.0642269-5.2115701-5.0642269h-6.5733875c3.6768624-1.3103846 6.3114996-4.7458426 6.3114996-8.7659968 0-5.1457975-4.3140153-9.331545-9.6112877-9.331545zm0 1.645231c4.3867119 0 7.9352048 3.4250421 7.9352048 7.686314 0 4.2612718-3.5484929 7.7120206-7.9352048 7.7120206-4.386712 0-7.9352048-3.4507488-7.9352048-7.7120206 0-4.2612719 3.5484928-7.686314 7.9352048-7.686314zm-9.8731756 18.0975418h19.7463512c1.9834052 0 3.5354873 1.5060528 3.5354873 3.4189959v20.2312008c0 1.9129924-1.5520804 3.4447025-3.5354873 3.4447025h-1.8594044l.4975871-9.7942662c.0200618-.453291-.3371727-.8371187-.7988926-.8583634-.4617198-.0212447-.8539661.3280977-.8771903.7812432l-1.780838 35.4238815h-10.1088748l-1.780838-35.4238815c-.0066718-.2228747-.1052182-.433546-.2730736-.5837735-.1678553-.1502275-.3906421-.2271435-.6173455-.2131353-.2224142.013239-.4303027.1128692-.5777271.2768747-.1474243.1640055-.222248.3788847-.2079367.5971543l.4975871 9.7942662h-1.8594044c-1.9834069 0-3.5354873-1.5317101-3.5354873-3.4447025v-20.2312008c0-1.9129431 1.552082-3.4189959 3.5354873-3.4189959z" fill="#161d3a" fill-rule="nonzero" stroke-width="1.749"/><ellipse cx="31.779661" cy="8.734513" rx="8.898305" ry="8.734513" stroke-width="3.498"/><ellipse cx="66.525424" cy="8.734513" rx="8.898305" ry="8.734513" stroke-width="3.498"/></g></g><path d="m75.1995261 57.7344506c-1.7783754-1.0452429-3.1121569-2.6877674-3.7049487-4.6289329-2.0747712-6.8687391-7.854491-11.3483515-14.5233986-11.3483515-6.6689075 0-12.4486273 4.6289328-14.5233985 11.3483515-.5927918 1.9411655-1.9265733 3.58369-3.7049487 4.6289329-10.3738561 5.9728167-11.8558356 17.9184499-11.8558356 24.4885482 0 4.4796125 3.1121569 8.0633024 8.150887 9.2578658 6.9653034 1.7918449 16.4499719-1.045243 20.5995143-8.6605842.4445939-.746602 1.0373857-.8959224 1.3337815-.8959224.2963959 0 1.0373857.1493204 1.4819795.8959224 3.2603548 6.1221371 10.0774602 9.1085454 16.3017739 9.1085454 1.4819795 0 2.9639589-.1493204 4.2977404-.4479612 5.0387301-1.3438838 8.150887-4.7782533 8.150887-9.2578658-.148198-6.7194187-1.6301774-18.5157315-12.0040335-24.4885482zm2.667563 29.4161219c-5.1869281 1.3438837-12.5968253-.7466021-15.5607842-6.4207779-1.0373857-1.9411654-3.1121569-3.2850491-5.3351261-3.2850491-2.2229691 0-4.2977404 1.1945633-5.335126 3.2850491-2.9639589 5.5248554-10.3738561 7.6153412-15.5607842 6.2714575-1.7783753-.4479613-4.7423342-1.6425246-4.7423342-4.9275737 0-5.6741758 1.1855836-15.6786437 9.6328664-20.6062174 2.815761-1.6425246 4.7423342-4.1809716 5.7797199-7.1673799 1.4819794-4.9275737 5.6315219-8.2126229 10.2256581-8.2126229 4.5941363 0 8.7436788 3.2850492 10.2256582 8.2126229.8891877 2.9864083 2.9639589 5.6741758 5.7797199 7.1673799 8.4472828 4.7782533 9.6328664 14.9320416 9.6328664 20.6062174 0 3.2850491-2.9639589 4.6289329-4.7423342 5.0768941zm-41.7918205-40.0178714c.5927918 3.8823308-.4445938 7.4660208-2.8157609 10.1537883-1.9265733 1.9411654-4.7423343 2.9864083-7.7062932 2.9864083-4.2977404 0-9.0400746-2.0904858-12.7450232-5.8234962-3.11215685-3.1357287-5.03873013-6.8687391-5.63152191-10.6017495-.59279178-4.0316512.29639589-7.6153412 2.81576095-10.1537883 4.89053216-4.9275737 14.07880476-3.5836899 20.45131636 2.8370879 3.1121569 3.1357287 5.0387301 6.8687391 5.6315219 10.6017495zm-6.0761157 6.8687391c1.4819794-1.4932041 2.0747712-3.7330103 1.6301774-6.4207778-.4445939-2.8370879-1.9265733-5.6741758-4.2977404-8.0633025-2.9639589-2.8370879-6.5207096-4.4796124-9.6328664-4.4796124-1.7783754 0-3.4085528.5972816-4.5941363 1.791845-1.4819795 1.4932041-2.0747712 3.7330103-1.6301774 6.2714574.4445938 2.8370879 1.9265733 5.6741758 4.2977404 8.0633024 4.5941363 4.6289329 11.1148458 5.9728167 14.2270027 2.8370879zm73.9507741-20.3075765c2.519365 2.5384471 3.556751 6.1221371 2.815761 10.1537883-.592791 3.8823308-2.667563 7.6153412-5.631522 10.6017495-3.7049482 3.8823308-8.4472825 5.8234962-12.7450229 5.8234962-2.9639588 0-5.6315219-.8959225-7.7062931-2.9864083-2.3711671-2.5384471-3.4085527-6.1221371-2.8157609-10.1537883.5927917-3.8823308 2.667563-7.6153412 5.6315219-10.6017495 6.3725116-6.5700983 15.5607842-7.7646616 20.451316-2.8370879zm-1.481979 9.4071862c.296396-2.5384471-.148198-4.7782533-1.630177-6.122137-1.185584-1.1945634-2.8157614-1.791845-4.5941368-1.791845-3.1121568 0-6.8171054 1.6425246-9.6328664 4.4796124-2.3711671 2.3891267-3.8531466 5.2262146-4.2977404 8.0633025-.2963959 2.6877675.148198 4.7782533 1.6301774 6.2714574 3.1121568 2.9864084 9.6328664 1.791845 14.2270027-2.8370879 2.3711675-2.3891266 3.8531465-5.2262145 4.2977405-8.0633024zm-64.1697102-2.8370879c-3.8531466-2.0904858-6.8171055-5.9728166-8.002689-10.7510699-2.3711671-8.6605841 1.1855835-17.4704886 7.8544911-19.71029487 2.8157609-.89592249 5.9279177-.59728166 8.7436787.89592247 3.7049486 2.0904858 6.6689075 6.1221371 8.002689 10.9003904 2.3711671 8.6605841-1.1855835 17.4704886-7.8544911 19.7102948-1.0373856.2986409-2.2229691.4479613-3.2603547.4479613-1.9265733 0-3.7049487-.5972817-5.483324-1.4932042zm1.1855836-26.2803931c-4.4459384 1.4932041-6.6689076 7.913982-4.8905322 14.1854394.8891876 3.58369 3.1121568 6.5700983 5.7797198 8.0633025 1.1855836.5972817 3.1121569 1.3438837 5.1869281.5972817 4.4459383-1.4932042 6.6689075-7.9139821 5.0387301-14.1854395-.8891876-3.58369-3.1121568-6.5700983-5.7797198-8.0633025-.8891877-.4479612-2.0747713-.8959225-3.4085528-.8959225-.5927917 0-1.3337815.1493205-1.9265732.2986409zm27.5648177 27.1763156c-6.8171055-2.2398062-10.3738561-11.0497107-7.8544911-19.8596153 1.3337815-4.9275737 4.2977404-8.8099045 8.002689-10.9003903 2.815761-1.49320416 5.9279178-1.79184499 8.7436788-.8959225 6.6689075 2.2398062 10.2256582 11.0497108 7.8544911 19.7102949-1.3337815 4.9275737-4.2977404 8.8099045-8.0026891 10.9003903-1.7783753 1.0452429-3.7049486 1.4932042-5.4833239 1.4932042-1.1855836 0-2.2229692-.1493205-3.2603548-.4479613zm-3.7049486-18.5157315c-1.6301774 6.2714574.5927918 12.8415557 5.186928 14.1854395 2.0747713.746602 4.0013446 0 5.1869281-.5972817 2.667563-1.3438838 4.7423342-4.4796125 5.7797199-8.0633025 1.6301774-6.2714574-.5927918-12.6922353-5.0387302-14.1854394-.7409897-.1493204-1.3337815-.2986409-1.9265732-.2986409-1.3337816 0-2.5193651.4479613-3.4085528.8959225-2.667563 1.3438838-4.7423342 4.4796125-5.7797198 8.0633025z" fill="#000" fill-rule="nonzero" stroke="#fff" stroke-width=".583"/><g stroke="#d0021b" stroke-linecap="square" stroke-width="5.83"><path d="m200.8775 4.58552632 115.83 88.18263618" transform="matrix(-1 0 0 1 517 0)"/><path d="m.8775 4.58552632 115.83 88.18263618" transform="matrix(-1 0 0 1 117 0)"/></g></g></svg>