<svg height="110" viewBox="0 0 268 110" width="268" xmlns="http://www.w3.org/2000/svg"><g fill="none" fill-rule="evenodd" transform="translate(0 12)"><path d="m.93415624 27.3181781 1.04362154-2.780117 3.40607652-1.4996011h9.3921928 15.8616016l2.286158 1.4996011 1.7654673 3.1523295v25.943303l-1.7654673 1.7440842-2.286158 1.9608981h-4.689704l-1.3656511 29.6835463v1.0621995h-13.4470142l-1.88459856-30.7457458-3.86682654-.43788-3.40607652-1.3393551-1.04362154-1.9277472z" fill="#f8d810"/><path d="m46.3241562 27.3181781 1.0436216-2.780117 3.4060765-1.4996011h9.3921928 15.8616016l2.286158 1.4996011 1.7654673 3.1523295v25.943303l-1.7654673 1.7440842-2.286158 1.9608981h-4.689704l-1.3656511 29.6835463v1.0621995h-13.4470142l-1.8845986-30.7457458-3.8668265-.43788-3.4060765-1.3393551-1.0436216-1.9277472z" fill="#4a90e2"/><path d="m93.4941562 27.3181781 1.0436216-2.780117 3.4060765-1.4996011h9.3921927 15.861602l2.286158 1.4996011 1.765467 3.1523295v25.943303l-1.765467 1.7440842-2.286158 1.9608981h-4.689704l-1.365651 29.6835463v1.0621995h-13.447015l-1.884598-30.7457458-3.8668267-.43788-3.4060765-1.3393551-1.0436216-1.9277472z" fill="#07b68f"/><path d="m139.774156 27.3181781 1.043622-2.780117 3.406076-1.4996011h9.392193 15.861602l2.286158 1.4996011 1.765467 3.1523295v25.943303l-1.765467 1.7440842-2.286158 1.9608981h-4.689704l-1.365651 29.6835463v1.0621995h-13.447015l-1.884598-30.7457458-3.866827-.43788-3.406076-1.3393551-1.043622-1.9277472z" fill="#f8d810"/><path d="m186.944156 27.3181781 1.043622-2.780117 3.406076-1.4996011h9.392193 15.861602l2.286158 1.4996011 1.765467 3.1523295v25.943303l-1.765467 1.7440842-2.286158 1.9608981h-4.689704l-1.365651 29.6835463v1.0621995h-13.447015l-1.884598-30.7457458-3.866827-.43788-3.406076-1.3393551-1.043622-1.9277472z" fill="#4a90e2"/><path d="m233.224156 27.3181781 1.043622-2.780117 3.406076-1.4996011h9.392193 15.861602l2.286158 1.4996011 1.765467 3.1523295v25.943303l-1.765467 1.7440842-2.286158 1.9608981h-4.689704l-1.365651 29.6835463v1.0621995h-13.447015l-1.884598-30.7457458-3.866827-.43788-3.406076-1.3393551-1.043622-1.9277472z" fill="#d0021b"/><path d="m17.8 0c-6.2507825 0-11.34131944 5.03180289-11.34131944 11.2177083 0 4.8327386 3.10887086 8.9625977 7.44756944 10.5378473h-7.75659722c-3.39087924 0-6.14965278 2.7156372-6.14965278 6.0878472v24.3204861c0 3.37221 2.75877552 6.11875 6.14965278 6.11875h2.28680555l1.45243056 29.759375c.01674806.5340206.45460571.9579861.98888891.9579861h13.8444444c.5342832 0 .9721408-.4239655.9888889-.9579861l1.4524306-29.759375h2.2868055c3.3908773 0 6.1496528-2.74654 6.1496528-6.11875v-24.3204861c0-3.37221-2.7587735-6.0878472-6.1496528-6.0878472h-7.7565972c4.3386976-1.5752496 7.4475694-5.7051087 7.4475694-10.5378473 0-6.18590541-5.0905379-11.2177083-11.3413194-11.2177083zm0 1.97777778c5.1763201 0 9.3635417 4.11733778 9.3635417 9.23993052 0 5.1225928-4.1872216 9.2708334-9.3635417 9.2708334s-9.36354167-4.1482406-9.36354167-9.2708334c0-5.12259274 4.18722157-9.23993052 9.36354167-9.23993052zm-11.65034722 21.75555552h23.30069442c2.3404182 0 4.171875 1.8104677 4.171875 4.1100695v24.3204861c0 2.2996611-1.8314548 4.1409722-4.171875 4.1409722h-2.1940972l.5871528-11.7739583c.0236729-.5449137-.3978638-1.0063235-.9426932-1.0318624s-1.0076801.3944153-1.0350846.939154l-2.1013889 42.5840278h-11.9284722l-2.1013889-42.5840278c-.0078727-.2679238-.12415744-.5211777-.32222677-.7017703-.19806932-.1805926-.46095771-.2730554-.72846767-.2562158-.26244878.015915-.50775725.1356832-.681718.3328387-.17396076.1971556-.26225268.4554678-.24536534.7178558l.58715278 11.7739583h-2.19409722c-2.34042015 0-4.171875-1.8413111-4.171875-4.1409722v-24.3204861c0-2.2996018 1.83145683-4.1100695 4.171875-4.1100695zm58.12812502-23.7333333c6.2507815 0 11.3413194 5.03180289 11.3413194 11.2177083 0 4.8327386-3.1088718 8.9625977-7.4475694 10.5378473h7.7565972c3.3908792 0 6.1496528 2.7156372 6.1496528 6.0878472v24.3204861c0 3.37221-2.7587755 6.11875-6.1496528 6.11875h-2.2868056l-1.4524305 29.759375c-.0167481.5340206-.4546058.9579861-.9888889.9579861h-13.8444444c-.5342832 0-.9721409-.4239655-.9888889-.9579861l-1.4524306-29.759375h-2.2868055c-3.3908773 0-6.1496528-2.74654-6.1496528-6.11875v-24.3204861c0-3.37221 2.7587735-6.0878472 6.1496528-6.0878472h7.7565972c-4.3386986-1.5752496-7.4475695-5.7051087-7.4475695-10.5378473 0-6.18590541 5.090537-11.2177083 11.3413195-11.2177083zm0 1.97777778c-5.1763201 0-9.3635417 4.11733778-9.3635417 9.23993052 0 5.1225928 4.1872216 9.2708334 9.3635417 9.2708334s9.3635416-4.1482406 9.3635416-9.2708334c0-5.12259274-4.1872215-9.23993052-9.3635416-9.23993052zm-11.6503472 21.75555552c-2.3404182 0-4.171875 1.8104677-4.171875 4.1100695v24.3204861c0 2.2996611 1.8314548 4.1409722 4.171875 4.1409722h2.1940972l-.5871528-11.7739583c-.0168873-.262388.0714046-.5207002.2453653-.7178558.1739608-.1971555.4192693-.3169237.681718-.3328387.26751-.0168396.5303984.0756232.7284677.2562158s.3143541.4338465.3222268.7017703l2.1013889 42.5840278h11.9284722l2.1013889-42.5840278c.0274045-.5447387.4902551-.9646929 1.0350846-.939154.5448294.0255389.9663661.4869487.9426932 1.0318624l-.5871528 11.7739583h2.1940972c2.3404201 0 4.171875-1.8413111 4.171875-4.1409722v-24.3204861c0-2.2996018-1.8314568-4.1100695-4.171875-4.1100695zm58.1281254-23.7333333c6.250781 0 11.341319 5.03180289 11.341319 11.2177083 0 4.8327386-3.108872 8.9625977-7.447569 10.5378473h7.756597c3.390879 0 6.149653 2.7156372 6.149653 6.0878472v24.3204861c0 3.37221-2.758776 6.11875-6.149653 6.11875h-2.286806l-1.45243 29.759375c-.016748.5340206-.454606.9579861-.988889.9579861h-13.844445c-.534283 0-.97214-.4239655-.988889-.9579861l-1.45243-29.759375h-2.2868057c-3.3908772 0-6.1496527-2.74654-6.1496527-6.11875v-24.3204861c0-3.37221 2.7587735-6.0878472 6.1496527-6.0878472h7.7565977c-4.338699-1.5752496-7.4475699-5.7051087-7.4475699-10.5378473 0-6.18590541 5.0905369-11.2177083 11.3413199-11.2177083zm0 1.97777778c-5.176321 0-9.363542 4.11733778-9.363542 9.23993052 0 5.1225928 4.187221 9.2708334 9.363542 9.2708334 5.17632 0 9.363541-4.1482406 9.363541-9.2708334 0-5.12259274-4.187221-9.23993052-9.363541-9.23993052zm-11.6503477 21.75555552c-2.3404181 0-4.171875 1.8104677-4.171875 4.1100695v24.3204861c0 2.2996611 1.8314549 4.1409722 4.171875 4.1409722h2.1940977l-.587153-11.7739583c-.016888-.262388.071404-.5207002.245365-.7178558.173961-.1971555.419269-.3169237.681718-.3328387.26751-.0168396.530398.0756232.728468.2562158.198069.1805926.314354.4338465.322227.7017703l2.101388 42.5840278h11.928473l2.101389-42.5840278c.027404-.5447387.490255-.9646929 1.035084-.939154.54483.0255389.966366.4869487.942693 1.0318624l-.587152 11.7739583h2.194097c2.34042 0 4.171875-1.8413111 4.171875-4.1409722v-24.3204861c0-2.2996018-1.831457-4.1100695-4.171875-4.1100695zm58.1281247-23.7333333c6.250782 0 11.34132 5.03180289 11.34132 11.2177083 0 4.8327386-3.108872 8.9625977-7.44757 10.5378473h7.756598c3.390879 0 6.149652 2.7156372 6.149652 6.0878472v24.3204861c0 3.37221-2.758775 6.11875-6.149652 6.11875h-2.286806l-1.452431 29.759375c-.016748.5340206-.454605.9579861-.988888.9579861h-13.844445c-.534283 0-.972141-.4239655-.988889-.9579861l-1.45243-29.759375h-2.286806c-3.390877 0-6.149653-2.74654-6.149653-6.11875v-24.3204861c0-3.37221 2.758774-6.0878472 6.149653-6.0878472h7.756597c-4.338698-1.5752496-7.447569-5.7051087-7.447569-10.5378473 0-6.18590541 5.090537-11.2177083 11.341319-11.2177083zm0 1.97777778c-5.17632 0-9.363541 4.11733778-9.363541 9.23993052 0 5.1225928 4.187221 9.2708334 9.363541 9.2708334s9.363542-4.1482406 9.363542-9.2708334c0-5.12259274-4.187222-9.23993052-9.363542-9.23993052zm-11.650347 21.75555552c-2.340418 0-4.171875 1.8104677-4.171875 4.1100695v24.3204861c0 2.2996611 1.831455 4.1409722 4.171875 4.1409722h2.194097l-.587152-11.7739583c-.016888-.262388.071404-.5207002.245365-.7178558.173961-.1971555.419269-.3169237.681718-.3328387.26751-.0168396.530398.0756232.728468.2562158.198069.1805926.314354.4338465.322226.7017703l2.101389 42.5840278h11.928472l2.101389-42.5840278c.027405-.5447387.490255-.9646929 1.035085-.939154.544829.0255389.966366.4869487.942693 1.0318624l-.587153 11.7739583h2.194098c2.34042 0 4.171875-1.8413111 4.171875-4.1409722v-24.3204861c0-2.2996018-1.831457-4.1100695-4.171875-4.1100695zm58.128125-23.7333333c6.250782 0 11.34132 5.03180289 11.34132 11.2177083 0 4.8327386-3.108872 8.9625977-7.44757 10.5378473h7.756597c3.39088 0 6.149653 2.7156372 6.149653 6.0878472v24.3204861c0 3.37221-2.758775 6.11875-6.149653 6.11875h-2.286805l-1.452431 29.759375c-.016748.5340206-.454606.9579861-.988889.9579861h-13.844444c-.534283 0-.972141-.4239655-.988889-.9579861l-1.452431-29.759375h-2.286805c-3.390877 0-6.149653-2.74654-6.149653-6.11875v-24.3204861c0-3.37221 2.758774-6.0878472 6.149653-6.0878472h7.756597c-4.338698-1.5752496-7.447569-5.7051087-7.447569-10.5378473 0-6.18590541 5.090537-11.2177083 11.341319-11.2177083zm0 1.97777778c-5.17632 0-9.363542 4.11733778-9.363542 9.23993052 0 5.1225928 4.187222 9.2708334 9.363542 9.2708334s9.363542-4.1482406 9.363542-9.2708334c0-5.12259274-4.187222-9.23993052-9.363542-9.23993052zm-11.650347 21.75555552c-2.340418 0-4.171875 1.8104677-4.171875 4.1100695v24.3204861c0 2.2996611 1.831455 4.1409722 4.171875 4.1409722h2.194097l-.587153-11.7739583c-.016887-.262388.071405-.5207002.245366-.7178558.17396-.1971555.419269-.3169237.681718-.3328387.26751-.0168396.530398.0756232.728467.2562158.19807.1805926.314354.4338465.322227.7017703l2.101389 42.5840278h11.928472l2.101389-42.5840278c.027405-.5447387.490255-.9646929 1.035085-.939154.544829.0255389.966366.4869487.942693 1.0318624l-.587153 11.7739583h2.194097c2.34042 0 4.171875-1.8413111 4.171875-4.1409722v-24.3204861c0-2.2996018-1.831457-4.1100695-4.171875-4.1100695zm58.128125-23.7333333c6.250781 0 11.341319 5.03180289 11.341319 11.2177083 0 4.8327386-3.108872 8.9625977-7.447569 10.5378473h7.756597c3.390879 0 6.149653 2.7156372 6.149653 6.0878472v24.3204861c0 3.37221-2.758776 6.11875-6.149653 6.11875h-2.286805l-1.452431 29.759375c-.016748.5340206-.454606.9579861-.988889.9579861h-13.844444c-.534283 0-.972141-.4239655-.988889-.9579861l-1.452431-29.759375h-2.286805c-3.390878 0-6.149653-2.74654-6.149653-6.11875v-24.3204861c0-3.37221 2.758773-6.0878472 6.149653-6.0878472h7.756597c-4.338699-1.5752496-7.44757-5.7051087-7.44757-10.5378473 0-6.18590541 5.090537-11.2177083 11.34132-11.2177083zm0 1.97777778c-5.17632 0-9.363542 4.11733778-9.363542 9.23993052 0 5.1225928 4.187222 9.2708334 9.363542 9.2708334s9.363542-4.1482406 9.363542-9.2708334c0-5.12259274-4.187222-9.23993052-9.363542-9.23993052zm-11.650347 21.75555552c-2.340419 0-4.171875 1.8104677-4.171875 4.1100695v24.3204861c0 2.2996611 1.831455 4.1409722 4.171875 4.1409722h2.194097l-.587153-11.7739583c-.016887-.262388.071405-.5207002.245365-.7178558.173961-.1971555.41927-.3169237.681718-.3328387.26751-.0168396.530399.0756232.728468.2562158s.314354.4338465.322227.7017703l2.101389 42.5840278h11.928472l2.101389-42.5840278c.027404-.5447387.490255-.9646929 1.035084-.939154.54483.0255389.966367.4869487.942694 1.0318624l-.587153 11.7739583h2.194097c2.34042 0 4.171875-1.8413111 4.171875-4.1409722v-24.3204861c0-2.2996018-1.831457-4.1100695-4.171875-4.1100695z" fill="#161d3a" fill-rule="nonzero" stroke="#161d3a" stroke-width="1.2"/></g></svg>